<svg width="32" height="32" viewBox="0 0 32 32" fill="none" xmlns="http://www.w3.org/2000/svg">
<g opacity="0.5" clip-path="url(#clip0)">
<path d="M28.9997 2.36304H3.00031C1.34594 2.36304 0 3.70897 0 5.36335V22.8864C0 24.5408 1.34594 25.8867 3.00031 25.8867H9.375V28.6992C9.375 29.217 9.79475 29.6367 10.3125 29.6367H21.6875C22.2052 29.6367 22.625 29.217 22.625 28.6992V25.8867H28.9997C30.6541 25.8867 32 24.5408 32 22.8864V5.36335C32 3.70897 30.6541 2.36304 28.9997 2.36304ZM1.875 22.8865V19.0118H2.8125C3.33025 19.0118 3.75 18.592 3.75 18.0743C3.75 17.5565 3.33025 17.1368 2.8125 17.1368H1.875V14.4246H2.8125C3.33025 14.4246 3.75 14.0048 3.75 13.4871C3.75 12.9693 3.33025 12.5496 2.8125 12.5496H1.875V9.86304H2.8125C3.33025 9.86304 3.75 9.44329 3.75 8.92554C3.75 8.40779 3.33025 7.98804 2.8125 7.98804H1.875V5.36335C1.875 4.74285 2.37981 4.23804 3.00031 4.23804H5.625V24.0118H3.00031C2.37981 24.0118 1.875 23.507 1.875 22.8865ZM20.75 27.7618H11.25V25.8868H20.75V27.7618ZM30.125 22.8865C30.125 23.507 29.6202 24.0118 28.9997 24.0118C28.8753 24.0118 7.78512 24.0118 7.5 24.0118V4.23804H28.9997C29.6202 4.23804 30.125 4.74285 30.125 5.36335V22.8865Z" fill="#0059AB"/>
<path d="M26.0108 6.11304H11.6143C10.3796 6.11304 9.375 7.11754 9.375 8.35229V19.872C9.375 21.1067 10.3795 22.1112 11.6143 22.1112H26.0108C27.2455 22.1112 28.25 21.1067 28.25 19.872V8.35229C28.25 7.11754 27.2455 6.11304 26.0108 6.11304ZM11.6143 7.98804H26.0108C26.2116 7.98804 26.375 8.15141 26.375 8.35229V13.1743H25.2744C24.9254 13.1743 24.6052 13.3682 24.4436 13.6775L23.7808 14.9453L22.4939 10.6407C22.2469 9.8146 21.1018 9.73285 20.7427 10.5202L19.5259 13.1874H18.4112C18.0479 13.1874 17.7172 13.3974 17.5627 13.7263L17.0032 14.9177L15.5074 10.4999C15.2585 9.76472 14.2713 9.63416 13.8399 10.2797L11.8971 13.1874H11.25V8.35229C11.25 8.15141 11.4134 7.98804 11.6143 7.98804ZM26.0108 20.2362H11.6143C11.4134 20.2362 11.25 20.0728 11.25 19.872V15.0624H12.3981C12.7112 15.0624 13.0037 14.9061 13.1776 14.6457L14.3417 12.9036L15.9739 17.7243C16.2434 18.5206 17.3516 18.5863 17.7105 17.8222L19.0066 15.0624H20.1287C20.4959 15.0624 20.8292 14.848 20.9816 14.514L21.4124 13.5697L22.6449 17.6922C22.8849 18.4948 23.9832 18.6054 24.3739 17.8579L25.8421 15.0493H26.375V19.872C26.375 20.0728 26.2116 20.2362 26.0108 20.2362Z" fill="#0059AB"/>
</g>
<defs>
<clipPath id="clip0">
<rect width="32" height="32" fill="white"/>
</clipPath>
</defs>
</svg>
