<svg width="20" height="20" viewBox="0 0 20 20" fill="none" xmlns="http://www.w3.org/2000/svg">
<g clip-path="url(#clip0)">
<path d="M19.8246 9.74332L11.3221 1.38668C10.593 0.670002 9.40672 0.670042 8.67765 1.38664L0.175115 9.74332C-0.0557054 9.9702 -0.0589085 10.3412 0.167927 10.572C0.394763 10.8027 0.76574 10.806 0.996521 10.5791L1.6582 9.92879V16.6005C1.6582 18.0068 2.80226 19.1508 4.20847 19.1508H15.7913C17.1975 19.1508 18.3416 18.0068 18.3416 16.6005V9.92879L19.0032 10.5791C19.1173 10.6913 19.2657 10.7472 19.4139 10.7472C19.5655 10.7472 19.7171 10.6887 19.8318 10.572C20.0587 10.3412 20.0555 9.9702 19.8246 9.74332ZM17.1696 16.6005C17.1696 17.3606 16.5513 17.9789 15.7912 17.9789H4.20847C3.44844 17.9789 2.83008 17.3606 2.83008 16.6005V8.77703L9.4991 2.22242C9.56812 2.15457 9.64801 2.10367 9.73328 2.06973C9.96777 1.97645 10.2432 2.01141 10.447 2.17469C10.4655 2.18953 10.4834 2.20543 10.5007 2.22242L17.1697 8.77699V16.6005H17.1696Z" fill="white"/>
<path d="M8.23995 7.69458V9.58017H6.35425C6.03065 9.58017 5.76831 9.84251 5.76831 10.1661V12.5046C5.76831 12.8282 6.03065 13.0906 6.35425 13.0906H8.23995V14.9761C8.23995 15.2997 8.5023 15.5621 8.82589 15.5621H11.1644C11.488 15.5621 11.7503 15.2997 11.7503 14.9761V13.0906H13.6357C13.9593 13.0906 14.2217 12.8282 14.2217 12.5046V10.1661C14.2217 9.84251 13.9593 9.58017 13.6357 9.58017H11.7503V7.69458C11.7503 7.37099 11.488 7.10864 11.1644 7.10864H8.82589C8.5023 7.10864 8.23995 7.37099 8.23995 7.69458ZM9.41183 10.1661V8.28052H10.5785V10.1661C10.5785 10.4897 10.8408 10.752 11.1644 10.752H13.0498V11.9187H11.1644C10.8408 11.9187 10.5785 12.181 10.5785 12.5046V14.3902H9.41183V12.5046C9.41183 12.181 9.14948 11.9187 8.82589 11.9187H6.94019V10.752H8.82589C9.14948 10.752 9.41183 10.4897 9.41183 10.1661Z" fill="white"/>
</g>
<defs>
<clipPath id="clip0">
<rect width="20" height="20" fill="white"/>
</clipPath>
</defs>
</svg>
