<svg width="501" height="157" viewBox="0 0 501 157" fill="none" xmlns="http://www.w3.org/2000/svg">
<rect x="1" y="1" width="499" height="155" fill="#F9FBFD" stroke="#C1C1C1" stroke-dasharray="4 4"/>
<path d="M156.182 108.112C154.894 108.112 153.918 107.776 153.256 107.104C152.593 106.432 152.262 105.443 152.262 104.136V98.648C152.262 98.4707 152.313 98.3307 152.416 98.228C152.518 98.116 152.658 98.06 152.836 98.06C153.004 98.06 153.139 98.116 153.242 98.228C153.344 98.3307 153.396 98.4707 153.396 98.648V104.234C153.396 105.195 153.629 105.919 154.096 106.404C154.572 106.889 155.267 107.132 156.182 107.132C157.096 107.132 157.787 106.889 158.254 106.404C158.72 105.919 158.954 105.195 158.954 104.234V98.648C158.954 98.4707 159.005 98.3307 159.108 98.228C159.22 98.116 159.36 98.06 159.528 98.06C159.705 98.06 159.845 98.116 159.948 98.228C160.05 98.3307 160.102 98.4707 160.102 98.648V104.136C160.102 105.433 159.766 106.423 159.094 107.104C158.431 107.776 157.46 108.112 156.182 108.112ZM165.425 101.014C166.022 101.014 166.549 101.163 167.007 101.462C167.464 101.761 167.819 102.181 168.071 102.722C168.323 103.254 168.449 103.875 168.449 104.584C168.449 105.293 168.323 105.914 168.071 106.446C167.819 106.969 167.464 107.375 167.007 107.664C166.559 107.953 166.031 108.098 165.425 108.098C164.893 108.098 164.426 107.981 164.025 107.748C163.633 107.515 163.334 107.183 163.129 106.754V110.044C163.129 110.212 163.077 110.343 162.975 110.436C162.881 110.539 162.746 110.59 162.569 110.59C162.391 110.59 162.251 110.539 162.149 110.436C162.046 110.333 161.995 110.203 161.995 110.044V101.602C161.995 101.434 162.046 101.299 162.149 101.196C162.251 101.093 162.391 101.042 162.569 101.042C162.746 101.042 162.881 101.093 162.975 101.196C163.077 101.299 163.129 101.434 163.129 101.602V102.358C163.334 101.929 163.633 101.597 164.025 101.364C164.426 101.131 164.893 101.014 165.425 101.014ZM165.201 107.16C165.863 107.16 166.377 106.936 166.741 106.488C167.105 106.04 167.287 105.405 167.287 104.584C167.287 103.763 167.105 103.123 166.741 102.666C166.377 102.199 165.863 101.966 165.201 101.966C164.538 101.966 164.025 102.19 163.661 102.638C163.306 103.086 163.129 103.725 163.129 104.556C163.129 105.387 163.306 106.031 163.661 106.488C164.025 106.936 164.538 107.16 165.201 107.16ZM170.417 108.07C170.249 108.07 170.109 108.023 169.997 107.93C169.894 107.827 169.843 107.687 169.843 107.51V98.62C169.843 98.4427 169.894 98.3073 169.997 98.214C170.109 98.1113 170.249 98.06 170.417 98.06C170.576 98.06 170.706 98.1113 170.809 98.214C170.921 98.3073 170.977 98.4427 170.977 98.62V107.51C170.977 107.687 170.921 107.827 170.809 107.93C170.706 108.023 170.576 108.07 170.417 108.07ZM175.625 108.098C174.981 108.098 174.412 107.953 173.917 107.664C173.432 107.375 173.054 106.964 172.783 106.432C172.522 105.891 172.391 105.265 172.391 104.556C172.391 103.847 172.522 103.226 172.783 102.694C173.054 102.153 173.432 101.737 173.917 101.448C174.412 101.159 174.981 101.014 175.625 101.014C176.269 101.014 176.838 101.159 177.333 101.448C177.828 101.737 178.206 102.153 178.467 102.694C178.738 103.226 178.873 103.847 178.873 104.556C178.873 105.265 178.738 105.891 178.467 106.432C178.206 106.964 177.828 107.375 177.333 107.664C176.838 107.953 176.269 108.098 175.625 108.098ZM175.625 107.16C176.297 107.16 176.81 106.941 177.165 106.502C177.529 106.054 177.711 105.405 177.711 104.556C177.711 103.725 177.529 103.086 177.165 102.638C176.801 102.181 176.288 101.952 175.625 101.952C174.962 101.952 174.449 102.181 174.085 102.638C173.721 103.086 173.539 103.725 173.539 104.556C173.539 105.396 173.716 106.04 174.071 106.488C174.435 106.936 174.953 107.16 175.625 107.16ZM183.048 101.014C184.756 101.014 185.61 101.91 185.61 103.702V107.51C185.61 107.678 185.559 107.813 185.456 107.916C185.363 108.019 185.232 108.07 185.064 108.07C184.896 108.07 184.761 108.019 184.658 107.916C184.556 107.813 184.504 107.678 184.504 107.51V106.838C184.327 107.239 184.056 107.552 183.692 107.776C183.328 107.991 182.908 108.098 182.432 108.098C181.994 108.098 181.588 108.009 181.214 107.832C180.85 107.655 180.561 107.407 180.346 107.09C180.132 106.773 180.024 106.423 180.024 106.04C180.024 105.527 180.155 105.13 180.416 104.85C180.678 104.561 181.107 104.355 181.704 104.234C182.302 104.103 183.132 104.038 184.196 104.038H184.504V103.576C184.504 103.016 184.388 102.605 184.154 102.344C183.93 102.083 183.562 101.952 183.048 101.952C182.414 101.952 181.77 102.125 181.116 102.47C180.864 102.629 180.687 102.708 180.584 102.708C180.472 102.708 180.379 102.666 180.304 102.582C180.23 102.498 180.192 102.391 180.192 102.26C180.192 102.129 180.23 102.017 180.304 101.924C180.388 101.821 180.519 101.719 180.696 101.616C181.023 101.429 181.392 101.285 181.802 101.182C182.222 101.07 182.638 101.014 183.048 101.014ZM182.586 107.202C183.146 107.202 183.604 107.015 183.958 106.642C184.322 106.259 184.504 105.769 184.504 105.172V104.766H184.252C183.431 104.766 182.806 104.803 182.376 104.878C181.947 104.943 181.639 105.06 181.452 105.228C181.275 105.387 181.186 105.625 181.186 105.942C181.186 106.306 181.317 106.609 181.578 106.852C181.849 107.085 182.185 107.202 182.586 107.202ZM192.86 98.06C193.038 98.06 193.178 98.1113 193.28 98.214C193.383 98.3167 193.434 98.4473 193.434 98.606V107.51C193.434 107.678 193.383 107.813 193.28 107.916C193.178 108.019 193.038 108.07 192.86 108.07C192.683 108.07 192.543 108.019 192.44 107.916C192.347 107.813 192.3 107.678 192.3 107.51V106.754C192.095 107.183 191.792 107.515 191.39 107.748C190.998 107.981 190.536 108.098 190.004 108.098C189.407 108.098 188.88 107.949 188.422 107.65C187.965 107.351 187.61 106.936 187.358 106.404C187.106 105.863 186.98 105.237 186.98 104.528C186.98 103.828 187.106 103.212 187.358 102.68C187.61 102.148 187.965 101.737 188.422 101.448C188.88 101.159 189.407 101.014 190.004 101.014C190.536 101.014 190.998 101.131 191.39 101.364C191.792 101.597 192.095 101.929 192.3 102.358V98.606C192.3 98.438 192.347 98.3073 192.44 98.214C192.543 98.1113 192.683 98.06 192.86 98.06ZM190.228 107.16C190.891 107.16 191.4 106.936 191.754 106.488C192.118 106.031 192.3 105.387 192.3 104.556C192.3 103.725 192.118 103.086 191.754 102.638C191.4 102.19 190.891 101.966 190.228 101.966C189.566 101.966 189.048 102.19 188.674 102.638C188.31 103.086 188.128 103.716 188.128 104.528C188.128 105.359 188.31 106.007 188.674 106.474C189.048 106.931 189.566 107.16 190.228 107.16ZM199.118 108.07C198.95 108.07 198.81 108.023 198.698 107.93C198.595 107.827 198.544 107.687 198.544 107.51V101.602C198.544 101.425 198.595 101.289 198.698 101.196C198.81 101.093 198.95 101.042 199.118 101.042C199.286 101.042 199.421 101.093 199.524 101.196C199.627 101.289 199.678 101.425 199.678 101.602V107.51C199.678 107.697 199.627 107.837 199.524 107.93C199.421 108.023 199.286 108.07 199.118 108.07ZM199.118 99.572C198.894 99.572 198.712 99.5067 198.572 99.376C198.432 99.2453 198.362 99.0727 198.362 98.858C198.362 98.6527 198.432 98.4847 198.572 98.354C198.712 98.2233 198.894 98.158 199.118 98.158C199.342 98.158 199.524 98.2233 199.664 98.354C199.804 98.4847 199.874 98.6527 199.874 98.858C199.874 99.0727 199.804 99.2453 199.664 99.376C199.524 99.5067 199.342 99.572 199.118 99.572ZM209.086 101.014C210.598 101.014 211.354 101.915 211.354 103.716V107.51C211.354 107.687 211.303 107.827 211.2 107.93C211.097 108.023 210.962 108.07 210.794 108.07C210.626 108.07 210.486 108.023 210.374 107.93C210.271 107.827 210.22 107.687 210.22 107.51V103.744C210.22 103.119 210.108 102.666 209.884 102.386C209.66 102.106 209.31 101.966 208.834 101.966C208.265 101.966 207.817 102.157 207.49 102.54C207.163 102.923 207 103.441 207 104.094V107.51C207 107.687 206.944 107.827 206.832 107.93C206.729 108.023 206.594 108.07 206.426 108.07C206.258 108.07 206.123 108.023 206.02 107.93C205.917 107.827 205.866 107.687 205.866 107.51V103.744C205.866 103.119 205.754 102.666 205.53 102.386C205.306 102.106 204.951 101.966 204.466 101.966C203.906 101.966 203.458 102.157 203.122 102.54C202.795 102.923 202.632 103.441 202.632 104.094V107.51C202.632 107.687 202.581 107.827 202.478 107.93C202.375 108.023 202.24 108.07 202.072 108.07C201.904 108.07 201.764 108.023 201.652 107.93C201.549 107.827 201.498 107.687 201.498 107.51V101.602C201.498 101.434 201.549 101.299 201.652 101.196C201.764 101.093 201.904 101.042 202.072 101.042C202.231 101.042 202.361 101.093 202.464 101.196C202.567 101.289 202.618 101.42 202.618 101.588V102.26C202.823 101.859 203.108 101.551 203.472 101.336C203.836 101.121 204.256 101.014 204.732 101.014C205.796 101.014 206.491 101.462 206.818 102.358C207.014 101.947 207.313 101.621 207.714 101.378C208.115 101.135 208.573 101.014 209.086 101.014ZM215.906 101.014C217.614 101.014 218.468 101.91 218.468 103.702V107.51C218.468 107.678 218.417 107.813 218.314 107.916C218.221 108.019 218.09 108.07 217.922 108.07C217.754 108.07 217.619 108.019 217.516 107.916C217.413 107.813 217.362 107.678 217.362 107.51V106.838C217.185 107.239 216.914 107.552 216.55 107.776C216.186 107.991 215.766 108.098 215.29 108.098C214.851 108.098 214.445 108.009 214.072 107.832C213.708 107.655 213.419 107.407 213.204 107.09C212.989 106.773 212.882 106.423 212.882 106.04C212.882 105.527 213.013 105.13 213.274 104.85C213.535 104.561 213.965 104.355 214.562 104.234C215.159 104.103 215.99 104.038 217.054 104.038H217.362V103.576C217.362 103.016 217.245 102.605 217.012 102.344C216.788 102.083 216.419 101.952 215.906 101.952C215.271 101.952 214.627 102.125 213.974 102.47C213.722 102.629 213.545 102.708 213.442 102.708C213.33 102.708 213.237 102.666 213.162 102.582C213.087 102.498 213.05 102.391 213.05 102.26C213.05 102.129 213.087 102.017 213.162 101.924C213.246 101.821 213.377 101.719 213.554 101.616C213.881 101.429 214.249 101.285 214.66 101.182C215.08 101.07 215.495 101.014 215.906 101.014ZM215.444 107.202C216.004 107.202 216.461 107.015 216.816 106.642C217.18 106.259 217.362 105.769 217.362 105.172V104.766H217.11C216.289 104.766 215.663 104.803 215.234 104.878C214.805 104.943 214.497 105.06 214.31 105.228C214.133 105.387 214.044 105.625 214.044 105.942C214.044 106.306 214.175 106.609 214.436 106.852C214.707 107.085 215.043 107.202 215.444 107.202ZM225.774 101.042C225.951 101.042 226.091 101.093 226.194 101.196C226.296 101.299 226.348 101.434 226.348 101.602V107.538C226.348 108.555 226.086 109.321 225.564 109.834C225.041 110.357 224.266 110.618 223.24 110.618C222.241 110.618 221.41 110.422 220.748 110.03C220.412 109.843 220.244 109.629 220.244 109.386C220.244 109.255 220.276 109.148 220.342 109.064C220.416 108.98 220.51 108.938 220.622 108.938C220.715 108.938 220.883 109.003 221.126 109.134C221.452 109.302 221.774 109.437 222.092 109.54C222.409 109.643 222.787 109.694 223.226 109.694C223.888 109.694 224.388 109.517 224.724 109.162C225.06 108.817 225.228 108.308 225.228 107.636V106.432C225.032 106.871 224.728 107.207 224.318 107.44C223.916 107.673 223.44 107.79 222.89 107.79C222.292 107.79 221.76 107.65 221.294 107.37C220.836 107.09 220.477 106.693 220.216 106.18C219.964 105.667 219.838 105.074 219.838 104.402C219.838 103.73 219.964 103.137 220.216 102.624C220.477 102.111 220.836 101.714 221.294 101.434C221.76 101.154 222.292 101.014 222.89 101.014C223.431 101.014 223.902 101.131 224.304 101.364C224.705 101.597 225.008 101.929 225.214 102.358V101.602C225.214 101.434 225.26 101.299 225.354 101.196C225.456 101.093 225.596 101.042 225.774 101.042ZM223.114 106.852C223.767 106.852 224.28 106.637 224.654 106.208C225.027 105.769 225.214 105.167 225.214 104.402C225.214 103.646 225.027 103.053 224.654 102.624C224.29 102.185 223.776 101.966 223.114 101.966C222.451 101.966 221.928 102.185 221.546 102.624C221.172 103.053 220.986 103.646 220.986 104.402C220.986 105.167 221.172 105.769 221.546 106.208C221.928 106.637 222.451 106.852 223.114 106.852ZM233.425 106.418C233.528 106.418 233.616 106.46 233.691 106.544C233.766 106.628 233.803 106.735 233.803 106.866C233.803 107.099 233.64 107.314 233.313 107.51C232.977 107.706 232.622 107.855 232.249 107.958C231.876 108.051 231.512 108.098 231.157 108.098C230.102 108.098 229.267 107.785 228.651 107.16C228.044 106.535 227.741 105.671 227.741 104.57C227.741 103.87 227.876 103.254 228.147 102.722C228.418 102.181 228.796 101.761 229.281 101.462C229.776 101.163 230.336 101.014 230.961 101.014C231.848 101.014 232.552 101.303 233.075 101.882C233.598 102.461 233.859 103.245 233.859 104.234C233.859 104.421 233.822 104.556 233.747 104.64C233.672 104.724 233.551 104.766 233.383 104.766H228.875C228.959 106.371 229.72 107.174 231.157 107.174C231.521 107.174 231.834 107.127 232.095 107.034C232.356 106.931 232.636 106.796 232.935 106.628C233.178 106.488 233.341 106.418 233.425 106.418ZM230.975 101.896C230.378 101.896 229.897 102.083 229.533 102.456C229.178 102.829 228.968 103.357 228.903 104.038H232.865C232.846 103.347 232.674 102.82 232.347 102.456C232.02 102.083 231.563 101.896 230.975 101.896ZM235.79 102.61C235.566 102.61 235.379 102.54 235.23 102.4C235.08 102.251 235.006 102.059 235.006 101.826C235.006 101.593 235.08 101.406 235.23 101.266C235.379 101.117 235.566 101.042 235.79 101.042C236.004 101.042 236.182 101.117 236.322 101.266C236.471 101.406 236.546 101.593 236.546 101.826C236.546 102.059 236.471 102.251 236.322 102.4C236.182 102.54 236.004 102.61 235.79 102.61ZM235.79 108.07C235.566 108.07 235.379 108 235.23 107.86C235.08 107.711 235.006 107.519 235.006 107.286C235.006 107.053 235.08 106.861 235.23 106.712C235.379 106.563 235.566 106.488 235.79 106.488C236.004 106.488 236.182 106.563 236.322 106.712C236.471 106.861 236.546 107.053 236.546 107.286C236.546 107.519 236.471 107.711 236.322 107.86C236.182 108 236.004 108.07 235.79 108.07ZM244.868 101.014C245.466 101.014 245.993 101.163 246.45 101.462C246.908 101.761 247.262 102.181 247.514 102.722C247.766 103.254 247.892 103.875 247.892 104.584C247.892 105.293 247.766 105.914 247.514 106.446C247.262 106.969 246.908 107.375 246.45 107.664C246.002 107.953 245.475 108.098 244.868 108.098C244.336 108.098 243.87 107.981 243.468 107.748C243.076 107.515 242.778 107.183 242.572 106.754V110.044C242.572 110.212 242.521 110.343 242.418 110.436C242.325 110.539 242.19 110.59 242.012 110.59C241.835 110.59 241.695 110.539 241.592 110.436C241.49 110.333 241.438 110.203 241.438 110.044V101.602C241.438 101.434 241.49 101.299 241.592 101.196C241.695 101.093 241.835 101.042 242.012 101.042C242.19 101.042 242.325 101.093 242.418 101.196C242.521 101.299 242.572 101.434 242.572 101.602V102.358C242.778 101.929 243.076 101.597 243.468 101.364C243.87 101.131 244.336 101.014 244.868 101.014ZM244.644 107.16C245.307 107.16 245.82 106.936 246.184 106.488C246.548 106.04 246.73 105.405 246.73 104.584C246.73 103.763 246.548 103.123 246.184 102.666C245.82 102.199 245.307 101.966 244.644 101.966C243.982 101.966 243.468 102.19 243.104 102.638C242.75 103.086 242.572 103.725 242.572 104.556C242.572 105.387 242.75 106.031 243.104 106.488C243.468 106.936 243.982 107.16 244.644 107.16ZM252.717 101.014C254.35 101.014 255.167 101.915 255.167 103.716V107.51C255.167 107.687 255.115 107.827 255.013 107.93C254.919 108.023 254.784 108.07 254.607 108.07C254.429 108.07 254.289 108.023 254.187 107.93C254.084 107.827 254.033 107.687 254.033 107.51V103.786C254.033 103.151 253.907 102.689 253.655 102.4C253.412 102.111 253.02 101.966 252.479 101.966C251.853 101.966 251.354 102.157 250.981 102.54C250.607 102.923 250.421 103.441 250.421 104.094V107.51C250.421 107.687 250.369 107.827 250.267 107.93C250.173 108.023 250.038 108.07 249.861 108.07C249.683 108.07 249.543 108.023 249.441 107.93C249.338 107.827 249.287 107.687 249.287 107.51V101.602C249.287 101.434 249.338 101.299 249.441 101.196C249.543 101.093 249.683 101.042 249.861 101.042C250.029 101.042 250.159 101.093 250.253 101.196C250.355 101.299 250.407 101.429 250.407 101.588V102.302C250.631 101.882 250.943 101.565 251.345 101.35C251.746 101.126 252.203 101.014 252.717 101.014ZM262.474 101.042C262.651 101.042 262.791 101.093 262.894 101.196C262.996 101.299 263.048 101.434 263.048 101.602V107.538C263.048 108.555 262.786 109.321 262.264 109.834C261.741 110.357 260.966 110.618 259.94 110.618C258.941 110.618 258.11 110.422 257.448 110.03C257.112 109.843 256.944 109.629 256.944 109.386C256.944 109.255 256.976 109.148 257.042 109.064C257.116 108.98 257.21 108.938 257.322 108.938C257.415 108.938 257.583 109.003 257.826 109.134C258.152 109.302 258.474 109.437 258.792 109.54C259.109 109.643 259.487 109.694 259.926 109.694C260.588 109.694 261.088 109.517 261.424 109.162C261.76 108.817 261.928 108.308 261.928 107.636V106.432C261.732 106.871 261.428 107.207 261.018 107.44C260.616 107.673 260.14 107.79 259.59 107.79C258.992 107.79 258.46 107.65 257.994 107.37C257.536 107.09 257.177 106.693 256.916 106.18C256.664 105.667 256.538 105.074 256.538 104.402C256.538 103.73 256.664 103.137 256.916 102.624C257.177 102.111 257.536 101.714 257.994 101.434C258.46 101.154 258.992 101.014 259.59 101.014C260.131 101.014 260.602 101.131 261.004 101.364C261.405 101.597 261.708 101.929 261.914 102.358V101.602C261.914 101.434 261.96 101.299 262.054 101.196C262.156 101.093 262.296 101.042 262.474 101.042ZM259.814 106.852C260.467 106.852 260.98 106.637 261.354 106.208C261.727 105.769 261.914 105.167 261.914 104.402C261.914 103.646 261.727 103.053 261.354 102.624C260.99 102.185 260.476 101.966 259.814 101.966C259.151 101.966 258.628 102.185 258.246 102.624C257.872 103.053 257.686 103.646 257.686 104.402C257.686 105.167 257.872 105.769 258.246 106.208C258.628 106.637 259.151 106.852 259.814 106.852ZM265.379 106.488C265.612 106.488 265.799 106.581 265.939 106.768C266.088 106.945 266.163 107.216 266.163 107.58C266.163 108.317 265.925 108.938 265.449 109.442C265.356 109.545 265.248 109.596 265.127 109.596C265.034 109.596 264.95 109.559 264.875 109.484C264.8 109.419 264.763 109.339 264.763 109.246C264.763 109.143 264.8 109.055 264.875 108.98C265.118 108.728 265.272 108.415 265.337 108.042C265.132 108.023 264.959 107.949 264.819 107.818C264.688 107.678 264.623 107.501 264.623 107.286C264.623 107.053 264.693 106.861 264.833 106.712C264.982 106.563 265.164 106.488 265.379 106.488ZM269.641 110.548C269.408 110.567 269.235 110.534 269.123 110.45C269.002 110.375 268.941 110.259 268.941 110.1C268.941 109.848 269.105 109.703 269.431 109.666L269.823 109.638C270.243 109.61 270.551 109.484 270.747 109.26C270.953 109.036 271.055 108.667 271.055 108.154V101.602C271.055 101.425 271.107 101.289 271.209 101.196C271.321 101.093 271.461 101.042 271.629 101.042C271.797 101.042 271.933 101.093 272.035 101.196C272.138 101.289 272.189 101.425 272.189 101.602V108.084C272.189 108.868 272.012 109.456 271.657 109.848C271.312 110.24 270.771 110.464 270.033 110.52L269.641 110.548ZM271.629 99.572C271.405 99.572 271.223 99.5067 271.083 99.376C270.943 99.2453 270.873 99.0727 270.873 98.858C270.873 98.6527 270.943 98.4847 271.083 98.354C271.223 98.2233 271.405 98.158 271.629 98.158C271.853 98.158 272.035 98.2233 272.175 98.354C272.315 98.4847 272.385 98.6527 272.385 98.858C272.385 99.0727 272.315 99.2453 272.175 99.376C272.035 99.5067 271.853 99.572 271.629 99.572ZM277.439 101.014C278.037 101.014 278.564 101.163 279.021 101.462C279.479 101.761 279.833 102.181 280.085 102.722C280.337 103.254 280.463 103.875 280.463 104.584C280.463 105.293 280.337 105.914 280.085 106.446C279.833 106.969 279.479 107.375 279.021 107.664C278.573 107.953 278.046 108.098 277.439 108.098C276.907 108.098 276.441 107.981 276.039 107.748C275.647 107.515 275.349 107.183 275.143 106.754V110.044C275.143 110.212 275.092 110.343 274.989 110.436C274.896 110.539 274.761 110.59 274.583 110.59C274.406 110.59 274.266 110.539 274.163 110.436C274.061 110.333 274.009 110.203 274.009 110.044V101.602C274.009 101.434 274.061 101.299 274.163 101.196C274.266 101.093 274.406 101.042 274.583 101.042C274.761 101.042 274.896 101.093 274.989 101.196C275.092 101.299 275.143 101.434 275.143 101.602V102.358C275.349 101.929 275.647 101.597 276.039 101.364C276.441 101.131 276.907 101.014 277.439 101.014ZM277.215 107.16C277.878 107.16 278.391 106.936 278.755 106.488C279.119 106.04 279.301 105.405 279.301 104.584C279.301 103.763 279.119 103.123 278.755 102.666C278.391 102.199 277.878 101.966 277.215 101.966C276.553 101.966 276.039 102.19 275.675 102.638C275.321 103.086 275.143 103.725 275.143 104.556C275.143 105.387 275.321 106.031 275.675 106.488C276.039 106.936 276.553 107.16 277.215 107.16ZM287.388 101.042C287.565 101.042 287.705 101.093 287.808 101.196C287.91 101.299 287.962 101.434 287.962 101.602V107.538C287.962 108.555 287.7 109.321 287.178 109.834C286.655 110.357 285.88 110.618 284.854 110.618C283.855 110.618 283.024 110.422 282.362 110.03C282.026 109.843 281.858 109.629 281.858 109.386C281.858 109.255 281.89 109.148 281.956 109.064C282.03 108.98 282.124 108.938 282.236 108.938C282.329 108.938 282.497 109.003 282.74 109.134C283.066 109.302 283.388 109.437 283.706 109.54C284.023 109.643 284.401 109.694 284.84 109.694C285.502 109.694 286.002 109.517 286.338 109.162C286.674 108.817 286.842 108.308 286.842 107.636V106.432C286.646 106.871 286.342 107.207 285.932 107.44C285.53 107.673 285.054 107.79 284.504 107.79C283.906 107.79 283.374 107.65 282.908 107.37C282.45 107.09 282.091 106.693 281.83 106.18C281.578 105.667 281.452 105.074 281.452 104.402C281.452 103.73 281.578 103.137 281.83 102.624C282.091 102.111 282.45 101.714 282.908 101.434C283.374 101.154 283.906 101.014 284.504 101.014C285.045 101.014 285.516 101.131 285.918 101.364C286.319 101.597 286.622 101.929 286.828 102.358V101.602C286.828 101.434 286.874 101.299 286.968 101.196C287.07 101.093 287.21 101.042 287.388 101.042ZM284.728 106.852C285.381 106.852 285.894 106.637 286.268 106.208C286.641 105.769 286.828 105.167 286.828 104.402C286.828 103.646 286.641 103.053 286.268 102.624C285.904 102.185 285.39 101.966 284.728 101.966C284.065 101.966 283.542 102.185 283.16 102.624C282.786 103.053 282.6 103.646 282.6 104.402C282.6 105.167 282.786 105.769 283.16 106.208C283.542 106.637 284.065 106.852 284.728 106.852ZM300.658 101.014C302.17 101.014 302.926 101.915 302.926 103.716V107.51C302.926 107.687 302.875 107.827 302.772 107.93C302.67 108.023 302.534 108.07 302.366 108.07C302.198 108.07 302.058 108.023 301.946 107.93C301.844 107.827 301.792 107.687 301.792 107.51V103.744C301.792 103.119 301.68 102.666 301.456 102.386C301.232 102.106 300.882 101.966 300.406 101.966C299.837 101.966 299.389 102.157 299.062 102.54C298.736 102.923 298.572 103.441 298.572 104.094V107.51C298.572 107.687 298.516 107.827 298.404 107.93C298.302 108.023 298.166 108.07 297.998 108.07C297.83 108.07 297.695 108.023 297.592 107.93C297.49 107.827 297.438 107.687 297.438 107.51V103.744C297.438 103.119 297.326 102.666 297.102 102.386C296.878 102.106 296.524 101.966 296.038 101.966C295.478 101.966 295.03 102.157 294.694 102.54C294.368 102.923 294.204 103.441 294.204 104.094V107.51C294.204 107.687 294.153 107.827 294.05 107.93C293.948 108.023 293.812 108.07 293.644 108.07C293.476 108.07 293.336 108.023 293.224 107.93C293.122 107.827 293.07 107.687 293.07 107.51V101.602C293.07 101.434 293.122 101.299 293.224 101.196C293.336 101.093 293.476 101.042 293.644 101.042C293.803 101.042 293.934 101.093 294.036 101.196C294.139 101.289 294.19 101.42 294.19 101.588V102.26C294.396 101.859 294.68 101.551 295.044 101.336C295.408 101.121 295.828 101.014 296.304 101.014C297.368 101.014 298.064 101.462 298.39 102.358C298.586 101.947 298.885 101.621 299.286 101.378C299.688 101.135 300.145 101.014 300.658 101.014ZM307.478 101.014C309.186 101.014 310.04 101.91 310.04 103.702V107.51C310.04 107.678 309.989 107.813 309.886 107.916C309.793 108.019 309.662 108.07 309.494 108.07C309.326 108.07 309.191 108.019 309.088 107.916C308.986 107.813 308.934 107.678 308.934 107.51V106.838C308.757 107.239 308.486 107.552 308.122 107.776C307.758 107.991 307.338 108.098 306.862 108.098C306.424 108.098 306.018 108.009 305.644 107.832C305.28 107.655 304.991 107.407 304.776 107.09C304.562 106.773 304.454 106.423 304.454 106.04C304.454 105.527 304.585 105.13 304.846 104.85C305.108 104.561 305.537 104.355 306.134 104.234C306.732 104.103 307.562 104.038 308.626 104.038H308.934V103.576C308.934 103.016 308.818 102.605 308.584 102.344C308.36 102.083 307.992 101.952 307.478 101.952C306.844 101.952 306.2 102.125 305.546 102.47C305.294 102.629 305.117 102.708 305.014 102.708C304.902 102.708 304.809 102.666 304.734 102.582C304.66 102.498 304.622 102.391 304.622 102.26C304.622 102.129 304.66 102.017 304.734 101.924C304.818 101.821 304.949 101.719 305.126 101.616C305.453 101.429 305.822 101.285 306.232 101.182C306.652 101.07 307.068 101.014 307.478 101.014ZM307.016 107.202C307.576 107.202 308.034 107.015 308.388 106.642C308.752 106.259 308.934 105.769 308.934 105.172V104.766H308.682C307.861 104.766 307.236 104.803 306.806 104.878C306.377 104.943 306.069 105.06 305.882 105.228C305.705 105.387 305.616 105.625 305.616 105.942C305.616 106.306 305.747 106.609 306.008 106.852C306.279 107.085 306.615 107.202 307.016 107.202ZM317.416 107.132C317.528 107.244 317.584 107.379 317.584 107.538C317.584 107.678 317.533 107.799 317.43 107.902C317.327 108.005 317.206 108.056 317.066 108.056C316.917 108.056 316.781 107.991 316.66 107.86L314.392 105.27L312.138 107.86C312.017 107.991 311.881 108.056 311.732 108.056C311.592 108.056 311.466 108.005 311.354 107.902C311.251 107.799 311.2 107.673 311.2 107.524C311.2 107.384 311.256 107.253 311.368 107.132L313.692 104.514L311.466 101.98C311.354 101.849 311.298 101.719 311.298 101.588C311.298 101.439 311.349 101.313 311.452 101.21C311.564 101.107 311.685 101.056 311.816 101.056C311.965 101.056 312.101 101.121 312.222 101.252L314.392 103.744L316.562 101.252C316.683 101.121 316.819 101.056 316.968 101.056C317.108 101.056 317.229 101.107 317.332 101.21C317.435 101.313 317.486 101.434 317.486 101.574C317.486 101.733 317.43 101.868 317.318 101.98L315.092 104.514L317.416 107.132ZM327.909 107.034C328.077 107.034 328.208 107.076 328.301 107.16C328.395 107.244 328.441 107.361 328.441 107.51C328.441 107.669 328.395 107.79 328.301 107.874C328.217 107.958 328.087 108 327.909 108H323.275C323.098 108 322.963 107.958 322.869 107.874C322.785 107.79 322.743 107.669 322.743 107.51C322.743 107.361 322.79 107.244 322.883 107.16C322.977 107.076 323.107 107.034 323.275 107.034H325.011V99.53L323.485 100.524C323.411 100.571 323.336 100.594 323.261 100.594C323.131 100.594 323.014 100.533 322.911 100.412C322.818 100.291 322.771 100.16 322.771 100.02C322.771 99.824 322.846 99.684 322.995 99.6L325.123 98.214C325.282 98.1113 325.445 98.06 325.613 98.06C325.772 98.06 325.903 98.1113 326.005 98.214C326.108 98.3167 326.159 98.4613 326.159 98.648V107.034H327.909ZM337.754 101.014C339.266 101.014 340.022 101.915 340.022 103.716V107.51C340.022 107.687 339.971 107.827 339.868 107.93C339.765 108.023 339.63 108.07 339.462 108.07C339.294 108.07 339.154 108.023 339.042 107.93C338.939 107.827 338.888 107.687 338.888 107.51V103.744C338.888 103.119 338.776 102.666 338.552 102.386C338.328 102.106 337.978 101.966 337.502 101.966C336.933 101.966 336.485 102.157 336.158 102.54C335.831 102.923 335.668 103.441 335.668 104.094V107.51C335.668 107.687 335.612 107.827 335.5 107.93C335.397 108.023 335.262 108.07 335.094 108.07C334.926 108.07 334.791 108.023 334.688 107.93C334.585 107.827 334.534 107.687 334.534 107.51V103.744C334.534 103.119 334.422 102.666 334.198 102.386C333.974 102.106 333.619 101.966 333.134 101.966C332.574 101.966 332.126 102.157 331.79 102.54C331.463 102.923 331.3 103.441 331.3 104.094V107.51C331.3 107.687 331.249 107.827 331.146 107.93C331.043 108.023 330.908 108.07 330.74 108.07C330.572 108.07 330.432 108.023 330.32 107.93C330.217 107.827 330.166 107.687 330.166 107.51V101.602C330.166 101.434 330.217 101.299 330.32 101.196C330.432 101.093 330.572 101.042 330.74 101.042C330.899 101.042 331.029 101.093 331.132 101.196C331.235 101.289 331.286 101.42 331.286 101.588V102.26C331.491 101.859 331.776 101.551 332.14 101.336C332.504 101.121 332.924 101.014 333.4 101.014C334.464 101.014 335.159 101.462 335.486 102.358C335.682 101.947 335.981 101.621 336.382 101.378C336.783 101.135 337.241 101.014 337.754 101.014ZM345.218 101.014C345.815 101.014 346.343 101.159 346.8 101.448C347.257 101.737 347.612 102.148 347.864 102.68C348.116 103.212 348.242 103.828 348.242 104.528C348.242 105.237 348.116 105.863 347.864 106.404C347.612 106.936 347.257 107.351 346.8 107.65C346.343 107.949 345.815 108.098 345.218 108.098C344.686 108.098 344.219 107.981 343.818 107.748C343.426 107.515 343.127 107.183 342.922 106.754V107.51C342.922 107.678 342.871 107.813 342.768 107.916C342.675 108.019 342.539 108.07 342.362 108.07C342.185 108.07 342.045 108.019 341.942 107.916C341.839 107.813 341.788 107.678 341.788 107.51V98.606C341.788 98.4473 341.839 98.3167 341.942 98.214C342.045 98.1113 342.185 98.06 342.362 98.06C342.539 98.06 342.675 98.1113 342.768 98.214C342.871 98.3073 342.922 98.438 342.922 98.606V102.358C343.127 101.929 343.426 101.597 343.818 101.364C344.219 101.131 344.686 101.014 345.218 101.014ZM344.994 107.16C345.657 107.16 346.17 106.931 346.534 106.474C346.898 106.007 347.08 105.359 347.08 104.528C347.08 103.716 346.898 103.086 346.534 102.638C346.17 102.19 345.657 101.966 344.994 101.966C344.331 101.966 343.818 102.19 343.454 102.638C343.099 103.086 342.922 103.725 342.922 104.556C342.922 105.387 343.099 106.031 343.454 106.488C343.818 106.936 344.331 107.16 344.994 107.16Z" fill="#808080"/>
<path d="M260.52 77H241.48C240.557 77 239.672 76.6334 239.019 75.9807C238.367 75.3281 238 74.443 238 73.52V54.48C238 53.557 238.367 52.6719 239.019 52.0193C239.672 51.3666 240.557 51 241.48 51H260.52C261.443 51 262.328 51.3666 262.981 52.0193C263.633 52.6719 264 53.557 264 54.48V73.52C264 74.443 263.633 75.3281 262.981 75.9807C262.328 76.6334 261.443 77 260.52 77ZM241.48 53C241.087 53 240.711 53.1559 240.433 53.4335C240.156 53.711 240 54.0875 240 54.48V73.52C240 73.9125 240.156 74.289 240.433 74.5665C240.711 74.8441 241.087 75 241.48 75H260.52C260.913 75 261.289 74.8441 261.567 74.5665C261.844 74.289 262 73.9125 262 73.52V54.48C262 54.0875 261.844 53.711 261.567 53.4335C261.289 53.1559 260.913 53 260.52 53H241.48Z" fill="#025B95"/>
<path d="M239 73.08C238.856 73.0795 238.714 73.0484 238.583 72.9886C238.452 72.9288 238.335 72.8418 238.24 72.7333C238.155 72.6328 238.091 72.5164 238.05 72.3908C238.01 72.2653 237.995 72.133 238.007 72.0017C238.018 71.8703 238.055 71.7425 238.115 71.6255C238.176 71.5085 238.259 71.4047 238.36 71.32L245.187 65.56C245.697 65.1298 246.349 64.9062 247.016 64.9334C247.682 64.9605 248.314 65.2364 248.787 65.7066L252.027 68.9466C252.148 69.0499 252.302 69.1067 252.46 69.1067C252.619 69.1067 252.773 69.0499 252.894 68.9466L256.04 66.6666C256.507 66.3077 257.079 66.113 257.667 66.113C258.256 66.113 258.828 66.3077 259.294 66.6666L263.627 70.12C263.73 70.2023 263.817 70.3041 263.88 70.4197C263.944 70.5352 263.985 70.6623 264 70.7935C264.015 70.9247 264.004 71.0576 263.967 71.1846C263.931 71.3115 263.869 71.43 263.787 71.5333C263.705 71.6366 263.603 71.7227 263.487 71.7866C263.372 71.8506 263.245 71.8912 263.114 71.906C262.982 71.9209 262.849 71.9097 262.723 71.8732C262.596 71.8367 262.477 71.7756 262.374 71.6933L258.054 68.2266C257.937 68.1369 257.794 68.0882 257.647 68.0882C257.5 68.0882 257.357 68.1369 257.24 68.2266L254.094 70.6666C253.582 71.0512 252.948 71.2386 252.309 71.1946C251.67 71.1505 251.068 70.8779 250.614 70.4266L247.374 67.12C247.251 67.0094 247.092 66.9482 246.927 66.9482C246.762 66.9482 246.603 67.0094 246.48 67.12L239.64 72.8533C239.462 73.0043 239.234 73.0849 239 73.08Z" fill="#025B95"/>
<path d="M255.001 63.6668C254.275 63.6668 253.567 63.4518 252.964 63.0489C252.361 62.646 251.891 62.0733 251.613 61.4033C251.336 60.7333 251.263 59.9961 251.404 59.2848C251.546 58.5736 251.895 57.9202 252.408 57.4074C252.921 56.8946 253.574 56.5454 254.285 56.404C254.997 56.2625 255.734 56.3351 256.404 56.6126C257.074 56.8901 257.646 57.3601 258.049 57.9631C258.452 58.5661 258.667 59.275 258.667 60.0002C258.667 60.9726 258.281 61.9053 257.593 62.5929C256.906 63.2805 255.973 63.6668 255.001 63.6668ZM255.001 58.3335C254.671 58.3335 254.349 58.4312 254.075 58.6144C253.801 58.7975 253.587 59.0578 253.461 59.3624C253.335 59.6669 253.302 60.002 253.366 60.3253C253.43 60.6486 253.589 60.9456 253.822 61.1787C254.055 61.4118 254.352 61.5705 254.675 61.6348C254.999 61.6991 255.334 61.6661 255.638 61.54C255.943 61.4138 256.203 61.2002 256.386 60.9261C256.57 60.652 256.667 60.3298 256.667 60.0002C256.667 59.5581 256.492 59.1342 256.179 58.8217C255.867 58.5091 255.443 58.3335 255.001 58.3335Z" fill="#025B95"/>
</svg>
