<svg width="20" height="20" viewBox="0 0 20 20" fill="none" xmlns="http://www.w3.org/2000/svg">
<path d="M10 6.875C8.27688 6.875 6.875 8.27688 6.875 10C6.875 11.7231 8.27688 13.125 10 13.125C11.7231 13.125 13.125 11.7231 13.125 10C13.125 8.27688 11.7231 6.875 10 6.875ZM10 11.875C8.96625 11.875 8.125 11.0338 8.125 10C8.125 8.96625 8.96625 8.125 10 8.125C11.0338 8.125 11.875 8.96625 11.875 10C11.875 11.0338 11.0338 11.875 10 11.875Z" fill="white"/>
<path d="M17.2039 11.2725L16.8751 11.0825C16.4839 10.8569 16.2501 10.4519 16.2501 10C16.2501 9.54813 16.4839 9.14312 16.8751 8.9175L17.2039 8.7275C18.1014 8.20937 18.4083 7.06375 17.8901 6.16625L17.2651 5.08375C16.7483 4.18812 15.5989 3.88062 14.7039 4.3975L14.3751 4.58688C13.9839 4.81313 13.5158 4.81313 13.1251 4.58688C12.7339 4.36063 12.5001 3.95625 12.5001 3.50437V3.125C12.5001 2.09125 11.6589 1.25 10.6251 1.25H9.37513C8.34138 1.25 7.50013 2.09125 7.50013 3.125V3.505C7.50013 3.95687 7.26638 4.36125 6.87513 4.5875C6.48388 4.81313 6.01638 4.81375 5.62513 4.5875L5.29638 4.3975C4.40138 3.88062 3.25201 4.18812 2.73451 5.08375L2.10951 6.16625C1.59138 7.06375 1.89826 8.20937 2.79576 8.7275L3.12513 8.9175C3.51638 9.14312 3.75013 9.54813 3.75013 10C3.75013 10.4519 3.51638 10.8569 3.12513 11.0825L2.79638 11.2725C1.89888 11.7906 1.59201 12.9363 2.11013 13.8338L2.73513 14.9162C3.25263 15.8119 4.40201 16.1194 5.29638 15.6025L5.62513 15.4131C6.01638 15.1862 6.48388 15.1875 6.87513 15.4131C7.26638 15.6394 7.50013 16.0437 7.50013 16.4956V16.875C7.50013 17.9088 8.34138 18.75 9.37513 18.75H10.6251C11.6589 18.75 12.5001 17.9088 12.5001 16.875V16.495C12.5001 16.0431 12.7339 15.6388 13.1251 15.4125C13.5158 15.1869 13.9839 15.1862 14.3751 15.4125L14.7039 15.6025C15.5989 16.1188 16.7483 15.8112 17.2651 14.9162L17.8901 13.8338C18.4083 12.9363 18.1014 11.7906 17.2039 11.2725ZM16.8076 13.2088L16.1826 14.2912C16.0095 14.5925 15.6239 14.6919 15.3289 14.52L15.0001 14.33C14.217 13.8781 13.2826 13.8781 12.5001 14.33C11.7176 14.7819 11.2501 15.5913 11.2501 16.495V16.875C11.2501 17.2194 10.9695 17.5 10.6251 17.5H9.37513C9.03076 17.5 8.75013 17.2194 8.75013 16.875V16.495C8.75013 15.5913 8.28263 14.7819 7.50013 14.33C6.71763 13.8781 5.78263 13.8781 5.00013 14.33L4.67138 14.52C4.37326 14.6938 3.99013 14.59 3.81763 14.2912L3.19263 13.2088C3.01763 12.9056 3.12638 12.525 3.42138 12.355L3.75013 12.165C4.53263 11.7131 5.00013 10.9038 5.00013 10C5.00013 9.09625 4.53263 8.28688 3.75013 7.835L3.42138 7.645C3.12701 7.47563 3.01763 7.09438 3.19263 6.79125L3.81763 5.70875C3.99326 5.40375 4.38076 5.31125 4.67138 5.48L5.00013 5.67C5.78326 6.12187 6.71763 6.12187 7.50013 5.67C8.28263 5.21812 8.75013 4.40875 8.75013 3.505V3.125C8.75013 2.78062 9.03076 2.5 9.37513 2.5H10.6251C10.9695 2.5 11.2501 2.78062 11.2501 3.125V3.505C11.2501 4.40875 11.7176 5.21812 12.5001 5.67C13.2826 6.12187 14.2176 6.12187 15.0001 5.67L15.3289 5.48C15.6245 5.30937 16.0083 5.40625 16.1826 5.70875L16.8076 6.79125C16.9826 7.09438 16.8739 7.475 16.5789 7.645L16.2501 7.835C15.4676 8.28688 15.0001 9.09625 15.0001 10C15.0001 10.9038 15.4676 11.7131 16.2501 12.165L16.5789 12.355C16.8739 12.525 16.9826 12.9056 16.8076 13.2088Z" fill="white"/>
</svg>
