<svg width="20" height="20" viewBox="0 0 20 20" fill="none" xmlns="http://www.w3.org/2000/svg">
<path d="M17.2069 18.75H12.1681C11.3175 18.75 10.625 18.0575 10.625 17.2069V10.9181C10.625 10.0675 11.3175 9.375 12.1681 9.375H17.2069C18.0575 9.375 18.75 10.0675 18.75 10.9181V17.2069C18.75 18.0575 18.0575 18.75 17.2069 18.75ZM12.1681 10.625C12.0062 10.625 11.875 10.7562 11.875 10.9181V17.2069C11.875 17.3688 12.0062 17.5 12.1681 17.5H17.2069C17.3688 17.5 17.5 17.3688 17.5 17.2069V10.9181C17.5 10.7562 17.3688 10.625 17.2069 10.625H12.1681Z" fill="white"/>
<path d="M17.2069 8.125H12.1681C11.3175 8.125 10.625 7.4325 10.625 6.58187V2.79312C10.625 1.9425 11.3175 1.25 12.1681 1.25H17.2069C18.0575 1.25 18.75 1.9425 18.75 2.79312V6.58187C18.75 7.4325 18.0575 8.125 17.2069 8.125ZM12.1681 2.5C12.0062 2.5 11.875 2.63125 11.875 2.79312V6.58187C11.875 6.74375 12.0062 6.875 12.1681 6.875H17.2069C17.3688 6.875 17.5 6.74375 17.5 6.58187V2.79312C17.5 2.63125 17.3688 2.5 17.2069 2.5H12.1681Z" fill="white"/>
<path d="M7.83187 10.625H2.79312C1.9425 10.625 1.25 9.9325 1.25 9.08187V2.79312C1.25 1.9425 1.9425 1.25 2.79312 1.25H7.83187C8.6825 1.25 9.375 1.9425 9.375 2.79312V9.08187C9.375 9.9325 8.6825 10.625 7.83187 10.625ZM2.79312 2.5C2.63125 2.5 2.5 2.63125 2.5 2.79312V9.08187C2.5 9.24375 2.63125 9.375 2.79312 9.375H7.83187C7.99375 9.375 8.125 9.24375 8.125 9.08187V2.79312C8.125 2.63125 7.99375 2.5 7.83187 2.5H2.79312Z" fill="white"/>
<path d="M7.83187 18.75H2.79312C1.9425 18.75 1.25 18.0575 1.25 17.2069V13.4181C1.25 12.5675 1.9425 11.875 2.79312 11.875H7.83187C8.6825 11.875 9.375 12.5675 9.375 13.4181V17.2069C9.375 18.0575 8.6825 18.75 7.83187 18.75ZM2.79312 13.125C2.63125 13.125 2.5 13.2562 2.5 13.4181V17.2069C2.5 17.3688 2.63125 17.5 2.79312 17.5H7.83187C7.99375 17.5 8.125 17.3688 8.125 17.2069V13.4181C8.125 13.2562 7.99375 13.125 7.83187 13.125H2.79312Z" fill="white"/>
</svg>
