<svg width="20" height="20" viewBox="0 0 20 20" fill="none" xmlns="http://www.w3.org/2000/svg">
<path fill-rule="evenodd" clip-rule="evenodd" d="M10 15.5249C5.79665 15.5249 2.53095 10.9847 2.15086 10.4562L2.15085 10.4562C2.13614 10.4358 2.12575 10.4213 2.1198 10.4134C1.96007 10.2004 1.96007 9.88096 2.1198 9.66798C2.12663 9.65888 2.13928 9.64103 2.15761 9.61519C2.56805 9.03641 5.82051 4.45001 10 4.45001C14.1795 4.45001 17.4319 9.03641 17.8424 9.61519C17.8607 9.64103 17.8734 9.65888 17.8802 9.66798C18.0399 9.88096 18.0399 10.2004 17.8802 10.4134C17.8743 10.4213 17.8639 10.4358 17.8492 10.4562L17.8491 10.4562C17.469 10.9847 14.2034 15.5249 10 15.5249ZM3.5574 10.0407C4.40932 11.1056 7.0183 14.1405 10 14.1405C12.9817 14.1405 15.6439 11.1056 16.4426 10.0407C15.5907 8.92256 12.9817 5.78113 10 5.78113C7.0183 5.78113 4.35607 8.92256 3.5574 10.0407ZM10 13.3419C8.13644 13.3419 6.64559 11.851 6.64559 9.98745C6.64559 8.12389 8.13644 6.63304 10 6.63304C11.8636 6.63304 13.3544 8.12389 13.3544 9.98745C13.3544 11.851 11.8636 13.3419 10 13.3419ZM10 7.96416C8.88186 7.96416 7.97671 8.86931 7.97671 9.98745C7.97671 11.1056 8.88186 12.0107 10 12.0107C11.1181 12.0107 12.0233 11.1056 12.0233 9.98745C12.0233 8.86931 11.1181 7.96416 10 7.96416Z" fill="black"/>
<mask id="mask0" mask-type="alpha" maskUnits="userSpaceOnUse" x="2" y="4" width="16" height="12">
<path fill-rule="evenodd" clip-rule="evenodd" d="M10 15.5249C5.79665 15.5249 2.53095 10.9847 2.15086 10.4562L2.15085 10.4562C2.13614 10.4358 2.12575 10.4213 2.1198 10.4134C1.96007 10.2004 1.96007 9.88096 2.1198 9.66798C2.12663 9.65888 2.13928 9.64103 2.15761 9.61519C2.56805 9.03641 5.82051 4.45001 10 4.45001C14.1795 4.45001 17.4319 9.03641 17.8424 9.61519C17.8607 9.64103 17.8734 9.65888 17.8802 9.66798C18.0399 9.88096 18.0399 10.2004 17.8802 10.4134C17.8743 10.4213 17.8639 10.4358 17.8492 10.4562L17.8491 10.4562C17.469 10.9847 14.2034 15.5249 10 15.5249ZM3.5574 10.0407C4.40932 11.1056 7.0183 14.1405 10 14.1405C12.9817 14.1405 15.6439 11.1056 16.4426 10.0407C15.5907 8.92256 12.9817 5.78113 10 5.78113C7.0183 5.78113 4.35607 8.92256 3.5574 10.0407ZM10 13.3419C8.13644 13.3419 6.64559 11.851 6.64559 9.98745C6.64559 8.12389 8.13644 6.63304 10 6.63304C11.8636 6.63304 13.3544 8.12389 13.3544 9.98745C13.3544 11.851 11.8636 13.3419 10 13.3419ZM10 7.96416C8.88186 7.96416 7.97671 8.86931 7.97671 9.98745C7.97671 11.1056 8.88186 12.0107 10 12.0107C11.1181 12.0107 12.0233 11.1056 12.0233 9.98745C12.0233 8.86931 11.1181 7.96416 10 7.96416Z" fill="white"/>
</mask>
<g mask="url(#mask0)">
<rect width="20" height="20" fill="#828B95"/>
</g>
</svg>
