<svg width="32" height="32" viewBox="0 0 32 32" fill="none" xmlns="http://www.w3.org/2000/svg">
<g opacity="0.4">
<path d="M28.9059 5.68324C27.2753 5.71949 25.9487 7.09518 25.9487 8.74986V9.0403C22.7524 7.09899 19.552 6.18568 16 6.18568C12.448 6.18568 9.24756 7.09899 6.05125 9.04036V8.74993C6.05125 7.09518 4.72462 5.71955 3.09394 5.6833C1.39031 5.64268 0 7.01555 0 8.70805V13.1731C0 15.0846 0.44225 16.9677 1.27881 18.6191C2.57744 21.1822 4.3105 22.3327 4.60131 22.513C7.97775 24.8887 11.8542 26.318 15.9999 26.318C20.1454 26.318 24.0219 24.889 27.3984 22.5131C27.6888 22.3332 29.4224 21.1827 30.7212 18.6191C31.5578 16.9677 32 15.0845 32 13.1731V8.70811C32 7.01211 30.6069 5.64299 28.9059 5.68324ZM6.05125 15.0181C9.31444 12.8032 12.4018 11.8107 16 11.8107C19.5982 11.8107 22.6856 12.8032 25.9487 15.0181V17.4857C22.6856 19.7005 19.5982 20.6931 16 20.6931C12.4018 20.6931 9.31437 19.7005 6.05125 17.4857V15.0181ZM16 8.06068C19.5982 8.06068 22.6856 9.05255 25.9487 11.2675V12.7904C22.7524 10.8491 19.552 9.93574 16 9.93574C12.448 9.93574 9.24756 10.8491 6.05125 12.7904V11.2676C9.31444 9.05255 12.4018 8.06068 16 8.06068ZM2.95144 17.7717C2.24725 16.3818 1.875 14.7916 1.875 13.1731V8.70811C1.875 8.07755 2.38475 7.55749 3.02581 7.55749C3.03462 7.55749 3.04344 7.55761 3.05231 7.5578C3.67206 7.57161 4.17625 8.10636 4.17625 8.74993V19.6255C3.77463 19.1527 3.34081 18.5403 2.95144 17.7717ZM6.05125 21.2353V19.7134C9.24756 21.6547 12.448 22.5681 16 22.5681C19.5519 22.5681 22.7524 21.6547 25.9487 19.7134V21.2353C19.6014 25.5103 12.3985 25.5103 6.05125 21.2353ZM30.125 13.1731C30.125 14.7916 29.7528 16.3817 29.0486 17.7717C28.6591 18.5404 28.2252 19.153 27.8237 19.6256C27.8237 19.4377 27.8237 8.83286 27.8237 8.74986C27.8237 8.10199 28.3366 7.55743 28.974 7.55743C29.6088 7.55743 30.1249 8.07099 30.1249 8.70805V13.1731H30.125Z" fill="#0059AB"/>
<path d="M16.9375 18.5057V17.1895H18.2538C18.7715 17.1895 19.1913 16.7698 19.1913 16.252C19.1913 15.7343 18.7715 15.3145 18.2538 15.3145H16.9375V13.9983C16.9375 13.4805 16.5178 13.0608 16 13.0608C15.4823 13.0608 15.0625 13.4805 15.0625 13.9983V15.3145H13.7463C13.2286 15.3145 12.8088 15.7343 12.8088 16.252C12.8088 16.7698 13.2286 17.1895 13.7463 17.1895H15.0625V18.5057C15.0625 19.0235 15.4823 19.4432 16 19.4432C16.5178 19.4432 16.9375 19.0235 16.9375 18.5057Z" fill="#0059AB"/>
</g>
</svg>
