<svg width="32" height="32" viewBox="0 0 32 32" fill="none" xmlns="http://www.w3.org/2000/svg">
<g opacity="0.5" clip-path="url(#clip0)">
<path d="M12.5898 20.0798C13.1076 20.0798 13.5273 19.6601 13.5273 19.1423C13.5273 18.6246 13.1076 18.2048 12.5898 18.2048C12.0721 18.2048 11.6523 18.6246 11.6523 19.1423C11.6523 19.6601 12.0721 20.0798 12.5898 20.0798Z" fill="#0059AB"/>
<path d="M19.4102 20.0798C19.9279 20.0798 20.3477 19.6601 20.3477 19.1423C20.3477 18.6246 19.9279 18.2048 19.4102 18.2048C18.8924 18.2048 18.4727 18.6246 18.4727 19.1423C18.4727 19.6601 18.8924 20.0798 19.4102 20.0798Z" fill="#0059AB"/>
<path d="M13.387 22.6828C13.0677 23.0904 13.1393 23.6797 13.5469 23.999C14.269 24.5649 15.1345 24.8478 16 24.8478C16.8655 24.8478 17.731 24.5649 18.4532 23.999C18.8608 23.6797 18.9324 23.0904 18.613 22.6828C18.2937 22.2753 17.7044 22.2037 17.2969 22.523C16.5333 23.1213 15.4668 23.1213 14.7032 22.523C14.2957 22.2038 13.7064 22.2752 13.387 22.6828Z" fill="#0059AB"/>
<path d="M14.4092 6.08887H15.0627V6.74243C15.0627 7.26018 15.4825 7.67993 16.0002 7.67993C16.518 7.67993 16.9377 7.26018 16.9377 6.74243V6.08887H17.5913C18.1091 6.08887 18.5288 5.66912 18.5288 5.15137C18.5288 4.63362 18.1091 4.21387 17.5913 4.21387H16.9377V3.5603C16.9377 3.04255 16.518 2.6228 16.0002 2.6228C15.4825 2.6228 15.0627 3.04255 15.0627 3.5603V4.21387H14.4092C13.8914 4.21387 13.4717 4.63362 13.4717 5.15137C13.4717 5.66912 13.8914 6.08887 14.4092 6.08887Z" fill="#0059AB"/>
<path d="M26.0072 11.4564C25.4394 10.6637 24.7907 10.0157 24.0844 9.52538L25.2178 4.14725C25.6687 2.008 24.0356 0 21.8535 0H10.1467C7.96035 0 6.33241 2.01212 6.78241 4.14712L7.91585 9.52531C7.20954 10.0157 6.56079 10.6637 5.99304 11.4563C4.66154 13.315 3.92822 15.7703 3.92822 18.37V22.0128C3.92822 24.9337 6.30453 27.31 9.22541 27.31H11.2118L9.4126 28.2187C8.29572 28.7662 7.3056 29.5111 6.46954 30.4326C6.12166 30.8161 6.15047 31.4089 6.53397 31.7568C6.91747 32.1048 7.51041 32.0758 7.85822 31.6924C8.53535 30.9461 9.33747 30.343 10.2423 29.9001C10.2458 29.8984 10.2493 29.8966 10.2527 29.8949L13.8811 28.0625C14.2645 28.1666 14.659 28.2431 15.0626 28.2897V31.0625C15.0626 31.5802 15.4823 32 16.0001 32C16.5178 32 16.9376 31.5802 16.9376 31.0625V28.2897C17.3412 28.243 17.7357 28.1665 18.1191 28.0625L21.7475 29.8949C21.751 29.8966 21.7544 29.8984 21.7579 29.9001C22.6627 30.343 23.4648 30.946 24.142 31.6924C24.4898 32.0759 25.0827 32.1048 25.4662 31.7568C25.8497 31.4089 25.8785 30.816 25.5307 30.4326C24.6946 29.5111 23.7045 28.7662 22.5876 28.2187L20.7883 27.31H22.7747C25.6956 27.31 28.0719 24.9337 28.0719 22.0128V18.37C28.072 15.7703 27.3387 13.315 26.0072 11.4564ZM10.1467 1.875H21.8536C22.8476 1.875 23.5878 2.78975 23.3832 3.76056L22.3997 8.42731H9.6006L8.6171 3.76056C8.6171 3.7605 8.6171 3.7605 8.6171 3.7605C8.4121 2.78781 9.15466 1.875 10.1467 1.875ZM9.7776 17.3109C12.9043 16.7436 14.9887 15.2857 16.0001 14.4132C17.0115 15.2857 19.0959 16.7435 22.2226 17.3109V20.2469C22.2226 23.6779 19.4312 26.4694 16.0001 26.4694C12.569 26.4694 9.7776 23.678 9.7776 20.2469V17.3109ZM26.197 22.0128C26.197 23.8998 24.6618 25.435 22.7748 25.435H22.2121C23.3884 24.0289 24.0976 22.2193 24.0976 20.2469V16.5057C24.0976 16.0322 23.7409 15.6324 23.274 15.5751C19.0119 15.0536 16.7435 12.5401 16.7067 12.4986C16.3315 12.0681 15.6605 12.0747 15.2914 12.5011C15.2694 12.5264 13.042 15.0469 8.72629 15.5751C8.26391 15.6318 7.90266 16.0274 7.90266 16.5057V20.2469C7.90266 22.2193 8.61185 24.0289 9.78816 25.435H9.22547C7.33847 25.435 5.80329 23.8998 5.80329 22.0128V18.37C5.80329 16.1588 6.41197 14.0912 7.51729 12.5483C8.55479 11.1001 9.90397 10.3025 11.3164 10.3025H20.6839C22.0963 10.3025 23.4456 11.1001 24.483 12.5483C25.5883 14.0912 26.197 16.1588 26.197 18.37V22.0128H26.197Z" fill="#0059AB"/>
</g>
<defs>
<clipPath id="clip0">
<rect width="32" height="32" fill="white"/>
</clipPath>
</defs>
</svg>
