<svg width="32" height="32" viewBox="0 0 32 32" fill="none" xmlns="http://www.w3.org/2000/svg">
<g opacity="0.5" clip-path="url(#clip0)">
<path d="M31.0492 15.5737C31.0492 12.9891 28.9464 10.8862 26.3617 10.8862C23.777 10.8862 21.6742 12.9891 21.6742 15.5737C21.6742 17.8375 23.2872 19.7314 25.4242 20.1669V25.4792C25.4242 28.0409 23.3401 30.1251 20.7783 30.1251H15.8391C13.5985 30.1251 11.7232 28.5306 11.2884 26.4167H12.1231C12.6409 26.4167 13.0606 25.9969 13.0606 25.4792V20.7847C13.0606 20.3267 13.239 19.896 13.563 19.5721L17.0836 16.0508C17.4495 15.6848 17.4496 15.091 17.0835 14.725L16.3943 14.0359C17.0158 13.4202 17.8792 12.4211 18.5451 11.0941C19.6196 8.95288 20.3706 5.54075 17.8462 1.44537C17.2967 0.553812 16.3038 0 15.2548 0H14.1945C13.6767 0 13.257 0.41975 13.257 0.9375C13.257 1.45525 13.6767 1.875 14.1945 1.875H15.2548C15.6581 1.875 16.0395 2.08731 16.2501 2.42919C17.899 5.10419 18.1173 7.7165 16.899 10.1935C16.3385 11.3329 15.5866 12.1959 15.0677 12.7096L14.4317 12.0737C14.0656 11.7076 13.4721 11.7077 13.106 12.0737L10.5022 14.6774C10.362 14.8177 10.1346 14.8177 9.99414 14.6774L7.39051 12.0737C7.02451 11.7076 6.43089 11.7076 6.06476 12.0736L5.42695 12.7112C4.91964 12.2103 4.18858 11.3721 3.62701 10.2531C2.37526 7.75875 2.58358 5.12638 4.2462 2.42913C4.45683 2.08731 4.8382 1.875 5.24145 1.875H6.30189C6.81964 1.875 7.23939 1.45525 7.23939 0.9375C7.23939 0.41975 6.81964 0 6.30189 0H5.24145C4.19239 0 3.19945 0.553813 2.65001 1.44531C0.125639 5.54069 0.876639 8.95281 1.95114 11.0941C2.61701 12.421 3.48045 13.4201 4.10195 14.0358L3.41276 14.7248C3.04689 15.0907 3.04658 15.6845 3.41264 16.0507L6.93333 19.572C7.25726 19.8959 7.43564 20.3266 7.43564 20.7846V25.4791C7.43564 25.9968 7.85539 26.4166 8.37314 26.4166H9.38595C9.84189 29.5696 12.5618 32 15.8391 32H20.7783C24.374 32 27.2992 29.0747 27.2992 25.4791V20.1669C29.4363 19.7314 31.0492 17.8374 31.0492 15.5737ZM8.2592 18.2463L5.40145 15.388L6.72745 14.0624L8.66826 16.0032C9.54139 16.8764 10.9547 16.8766 11.828 16.0032L13.7689 14.0624L15.0948 15.388L12.2371 18.2462C11.5591 18.9242 11.1857 19.8257 11.1857 20.7846V24.5416H9.3107V20.7846C9.31064 19.8258 8.9372 18.9242 8.2592 18.2463ZM26.3617 18.3862C24.8109 18.3862 23.5492 17.1246 23.5492 15.5737C23.5492 14.0229 24.8109 12.7612 26.3617 12.7612C27.9125 12.7612 29.1742 14.0229 29.1742 15.5737C29.1742 17.1246 27.9126 18.3862 26.3617 18.3862Z" fill="#0059AB"/>
<path d="M26.3616 16.5112C26.8793 16.5112 27.2991 16.0915 27.2991 15.5737C27.2991 15.056 26.8793 14.6362 26.3616 14.6362C25.8438 14.6362 25.4241 15.056 25.4241 15.5737C25.4241 16.0915 25.8438 16.5112 26.3616 16.5112Z" fill="#0059AB"/>
</g>
<defs>
<clipPath id="clip0">
<rect width="32" height="32" fill="white"/>
</clipPath>
</defs>
</svg>
