<svg width="14" height="14" viewBox="0 0 14 14" fill="none" xmlns="http://www.w3.org/2000/svg">
<path opacity="0.4" d="M6.5625 9.49056C6.5625 9.24906 6.7585 9.04956 7 9.04956C7.2415 9.04956 7.4375 9.24264 7.4375 9.48414V9.49056C7.4375 9.73206 7.2415 9.92806 7 9.92806C6.7585 9.92806 6.5625 9.73206 6.5625 9.49056Z" fill="#D01E24"/>
<path d="M2.79761 11.9105H11.2454C11.9145 11.8755 12.429 11.3056 12.3946 10.6365C12.387 10.5012 12.3579 10.3676 12.3065 10.2427L8.06161 2.8134C7.73728 2.22715 6.99936 2.01482 6.41311 2.33974C6.21361 2.4494 6.04911 2.6139 5.93886 2.8134L1.69395 10.2427C1.44195 10.8634 1.74061 11.5704 2.3607 11.823C2.4867 11.8737 2.6197 11.9029 2.75503 11.9105" stroke="#D01E24" stroke-width="1.5" stroke-linecap="round" stroke-linejoin="round"/>
<path opacity="0.4" d="M6.99382 7.81444V6.0061" stroke="#D01E24" stroke-width="1.5" stroke-linecap="round" stroke-linejoin="round"/>
</svg>
