<svg width="32" height="32" viewBox="0 0 32 32" fill="none" xmlns="http://www.w3.org/2000/svg">
<g opacity="0.5" clip-path="url(#clip0)">
<path d="M15.3369 30.0392L2.6902 17.3925C-0.89668 13.8056 -0.896742 7.96816 2.69007 4.37985C4.4272 2.64266 6.73763 1.68604 9.19582 1.68604C12.6809 1.68604 14.7704 3.44466 16.0024 4.66922C17.2486 3.44141 19.3521 1.68604 22.8028 1.68604C25.2618 1.68604 27.5728 2.64266 29.3098 4.37972C29.3099 4.37979 29.3099 4.37979 29.3099 4.37985C32.8968 7.96816 32.8967 13.8055 29.3098 17.3925L16.6631 30.0392C16.2968 30.4055 15.7031 30.4054 15.3369 30.0392ZM9.19582 3.56154C7.23863 3.56154 5.39913 4.3231 4.01632 5.70591C1.16057 8.56279 1.16057 13.2105 4.01632 16.0663L16 28.05L27.9836 16.0663C30.8394 13.2105 30.8394 8.56285 27.9835 5.70585C26.6008 4.32316 24.7609 3.5616 22.8028 3.5616C19.4663 3.5616 17.7723 5.55754 16.6636 6.6671C16.2974 7.03385 15.7027 7.03385 15.3364 6.6671C14.3323 5.66072 12.5879 3.56154 9.19582 3.56154Z" fill="#0059AB"/>
<path d="M17.8753 21.692H14.1244C13.6065 21.692 13.1866 21.2721 13.1866 20.7542V18.0917H10.5247C10.0068 18.0917 9.58691 17.6718 9.58691 17.1539V13.4029C9.58691 12.885 10.0068 12.4652 10.5247 12.4652H13.1866V9.80323C13.1866 9.28535 13.6065 8.86548 14.1244 8.86548H17.8753C18.3932 8.86548 18.8131 9.28535 18.8131 9.80323V12.4652H21.475C21.9929 12.4652 22.4128 12.885 22.4128 13.4029V17.1539C22.4128 17.6718 21.9929 18.0917 21.475 18.0917H18.8131V20.7542C18.8131 21.2721 18.3932 21.692 17.8753 21.692ZM15.0621 19.8165H16.9376V17.1539C16.9376 16.636 17.3575 16.2162 17.8753 16.2162H20.5373V14.3407H17.8753C17.3575 14.3407 16.9376 13.9208 16.9376 13.4029V10.741H15.0621V13.4029C15.0621 13.9208 14.6422 14.3407 14.1244 14.3407H11.4624V16.2162H14.1244C14.6422 16.2162 15.0621 16.636 15.0621 17.1539V19.8165Z" fill="#0059AB"/>
</g>
<defs>
<clipPath id="clip0">
<rect width="32" height="32" fill="white"/>
</clipPath>
</defs>
</svg>
