<svg width="501" height="354" viewBox="0 0 501 354" fill="none" xmlns="http://www.w3.org/2000/svg">
<rect x="1" y="1" width="499" height="352" fill="#F9FBFD" stroke="#C1C1C1" stroke-dasharray="4 4"/>
<path d="M156.182 207.112C154.894 207.112 153.918 206.776 153.256 206.104C152.593 205.432 152.262 204.443 152.262 203.136V197.648C152.262 197.471 152.313 197.331 152.416 197.228C152.518 197.116 152.658 197.06 152.836 197.06C153.004 197.06 153.139 197.116 153.242 197.228C153.344 197.331 153.396 197.471 153.396 197.648V203.234C153.396 204.195 153.629 204.919 154.096 205.404C154.572 205.889 155.267 206.132 156.182 206.132C157.096 206.132 157.787 205.889 158.254 205.404C158.72 204.919 158.954 204.195 158.954 203.234V197.648C158.954 197.471 159.005 197.331 159.108 197.228C159.22 197.116 159.36 197.06 159.528 197.06C159.705 197.06 159.845 197.116 159.948 197.228C160.05 197.331 160.102 197.471 160.102 197.648V203.136C160.102 204.433 159.766 205.423 159.094 206.104C158.431 206.776 157.46 207.112 156.182 207.112ZM165.425 200.014C166.022 200.014 166.549 200.163 167.007 200.462C167.464 200.761 167.819 201.181 168.071 201.722C168.323 202.254 168.449 202.875 168.449 203.584C168.449 204.293 168.323 204.914 168.071 205.446C167.819 205.969 167.464 206.375 167.007 206.664C166.559 206.953 166.031 207.098 165.425 207.098C164.893 207.098 164.426 206.981 164.025 206.748C163.633 206.515 163.334 206.183 163.129 205.754V209.044C163.129 209.212 163.077 209.343 162.975 209.436C162.881 209.539 162.746 209.59 162.569 209.59C162.391 209.59 162.251 209.539 162.149 209.436C162.046 209.333 161.995 209.203 161.995 209.044V200.602C161.995 200.434 162.046 200.299 162.149 200.196C162.251 200.093 162.391 200.042 162.569 200.042C162.746 200.042 162.881 200.093 162.975 200.196C163.077 200.299 163.129 200.434 163.129 200.602V201.358C163.334 200.929 163.633 200.597 164.025 200.364C164.426 200.131 164.893 200.014 165.425 200.014ZM165.201 206.16C165.863 206.16 166.377 205.936 166.741 205.488C167.105 205.04 167.287 204.405 167.287 203.584C167.287 202.763 167.105 202.123 166.741 201.666C166.377 201.199 165.863 200.966 165.201 200.966C164.538 200.966 164.025 201.19 163.661 201.638C163.306 202.086 163.129 202.725 163.129 203.556C163.129 204.387 163.306 205.031 163.661 205.488C164.025 205.936 164.538 206.16 165.201 206.16ZM170.417 207.07C170.249 207.07 170.109 207.023 169.997 206.93C169.894 206.827 169.843 206.687 169.843 206.51V197.62C169.843 197.443 169.894 197.307 169.997 197.214C170.109 197.111 170.249 197.06 170.417 197.06C170.576 197.06 170.706 197.111 170.809 197.214C170.921 197.307 170.977 197.443 170.977 197.62V206.51C170.977 206.687 170.921 206.827 170.809 206.93C170.706 207.023 170.576 207.07 170.417 207.07ZM175.625 207.098C174.981 207.098 174.412 206.953 173.917 206.664C173.432 206.375 173.054 205.964 172.783 205.432C172.522 204.891 172.391 204.265 172.391 203.556C172.391 202.847 172.522 202.226 172.783 201.694C173.054 201.153 173.432 200.737 173.917 200.448C174.412 200.159 174.981 200.014 175.625 200.014C176.269 200.014 176.838 200.159 177.333 200.448C177.828 200.737 178.206 201.153 178.467 201.694C178.738 202.226 178.873 202.847 178.873 203.556C178.873 204.265 178.738 204.891 178.467 205.432C178.206 205.964 177.828 206.375 177.333 206.664C176.838 206.953 176.269 207.098 175.625 207.098ZM175.625 206.16C176.297 206.16 176.81 205.941 177.165 205.502C177.529 205.054 177.711 204.405 177.711 203.556C177.711 202.725 177.529 202.086 177.165 201.638C176.801 201.181 176.288 200.952 175.625 200.952C174.962 200.952 174.449 201.181 174.085 201.638C173.721 202.086 173.539 202.725 173.539 203.556C173.539 204.396 173.716 205.04 174.071 205.488C174.435 205.936 174.953 206.16 175.625 206.16ZM183.048 200.014C184.756 200.014 185.61 200.91 185.61 202.702V206.51C185.61 206.678 185.559 206.813 185.456 206.916C185.363 207.019 185.232 207.07 185.064 207.07C184.896 207.07 184.761 207.019 184.658 206.916C184.556 206.813 184.504 206.678 184.504 206.51V205.838C184.327 206.239 184.056 206.552 183.692 206.776C183.328 206.991 182.908 207.098 182.432 207.098C181.994 207.098 181.588 207.009 181.214 206.832C180.85 206.655 180.561 206.407 180.346 206.09C180.132 205.773 180.024 205.423 180.024 205.04C180.024 204.527 180.155 204.13 180.416 203.85C180.678 203.561 181.107 203.355 181.704 203.234C182.302 203.103 183.132 203.038 184.196 203.038H184.504V202.576C184.504 202.016 184.388 201.605 184.154 201.344C183.93 201.083 183.562 200.952 183.048 200.952C182.414 200.952 181.77 201.125 181.116 201.47C180.864 201.629 180.687 201.708 180.584 201.708C180.472 201.708 180.379 201.666 180.304 201.582C180.23 201.498 180.192 201.391 180.192 201.26C180.192 201.129 180.23 201.017 180.304 200.924C180.388 200.821 180.519 200.719 180.696 200.616C181.023 200.429 181.392 200.285 181.802 200.182C182.222 200.07 182.638 200.014 183.048 200.014ZM182.586 206.202C183.146 206.202 183.604 206.015 183.958 205.642C184.322 205.259 184.504 204.769 184.504 204.172V203.766H184.252C183.431 203.766 182.806 203.803 182.376 203.878C181.947 203.943 181.639 204.06 181.452 204.228C181.275 204.387 181.186 204.625 181.186 204.942C181.186 205.306 181.317 205.609 181.578 205.852C181.849 206.085 182.185 206.202 182.586 206.202ZM192.86 197.06C193.038 197.06 193.178 197.111 193.28 197.214C193.383 197.317 193.434 197.447 193.434 197.606V206.51C193.434 206.678 193.383 206.813 193.28 206.916C193.178 207.019 193.038 207.07 192.86 207.07C192.683 207.07 192.543 207.019 192.44 206.916C192.347 206.813 192.3 206.678 192.3 206.51V205.754C192.095 206.183 191.792 206.515 191.39 206.748C190.998 206.981 190.536 207.098 190.004 207.098C189.407 207.098 188.88 206.949 188.422 206.65C187.965 206.351 187.61 205.936 187.358 205.404C187.106 204.863 186.98 204.237 186.98 203.528C186.98 202.828 187.106 202.212 187.358 201.68C187.61 201.148 187.965 200.737 188.422 200.448C188.88 200.159 189.407 200.014 190.004 200.014C190.536 200.014 190.998 200.131 191.39 200.364C191.792 200.597 192.095 200.929 192.3 201.358V197.606C192.3 197.438 192.347 197.307 192.44 197.214C192.543 197.111 192.683 197.06 192.86 197.06ZM190.228 206.16C190.891 206.16 191.4 205.936 191.754 205.488C192.118 205.031 192.3 204.387 192.3 203.556C192.3 202.725 192.118 202.086 191.754 201.638C191.4 201.19 190.891 200.966 190.228 200.966C189.566 200.966 189.048 201.19 188.674 201.638C188.31 202.086 188.128 202.716 188.128 203.528C188.128 204.359 188.31 205.007 188.674 205.474C189.048 205.931 189.566 206.16 190.228 206.16ZM199.118 207.07C198.95 207.07 198.81 207.023 198.698 206.93C198.595 206.827 198.544 206.687 198.544 206.51V200.602C198.544 200.425 198.595 200.289 198.698 200.196C198.81 200.093 198.95 200.042 199.118 200.042C199.286 200.042 199.421 200.093 199.524 200.196C199.627 200.289 199.678 200.425 199.678 200.602V206.51C199.678 206.697 199.627 206.837 199.524 206.93C199.421 207.023 199.286 207.07 199.118 207.07ZM199.118 198.572C198.894 198.572 198.712 198.507 198.572 198.376C198.432 198.245 198.362 198.073 198.362 197.858C198.362 197.653 198.432 197.485 198.572 197.354C198.712 197.223 198.894 197.158 199.118 197.158C199.342 197.158 199.524 197.223 199.664 197.354C199.804 197.485 199.874 197.653 199.874 197.858C199.874 198.073 199.804 198.245 199.664 198.376C199.524 198.507 199.342 198.572 199.118 198.572ZM209.086 200.014C210.598 200.014 211.354 200.915 211.354 202.716V206.51C211.354 206.687 211.303 206.827 211.2 206.93C211.097 207.023 210.962 207.07 210.794 207.07C210.626 207.07 210.486 207.023 210.374 206.93C210.271 206.827 210.22 206.687 210.22 206.51V202.744C210.22 202.119 210.108 201.666 209.884 201.386C209.66 201.106 209.31 200.966 208.834 200.966C208.265 200.966 207.817 201.157 207.49 201.54C207.163 201.923 207 202.441 207 203.094V206.51C207 206.687 206.944 206.827 206.832 206.93C206.729 207.023 206.594 207.07 206.426 207.07C206.258 207.07 206.123 207.023 206.02 206.93C205.917 206.827 205.866 206.687 205.866 206.51V202.744C205.866 202.119 205.754 201.666 205.53 201.386C205.306 201.106 204.951 200.966 204.466 200.966C203.906 200.966 203.458 201.157 203.122 201.54C202.795 201.923 202.632 202.441 202.632 203.094V206.51C202.632 206.687 202.581 206.827 202.478 206.93C202.375 207.023 202.24 207.07 202.072 207.07C201.904 207.07 201.764 207.023 201.652 206.93C201.549 206.827 201.498 206.687 201.498 206.51V200.602C201.498 200.434 201.549 200.299 201.652 200.196C201.764 200.093 201.904 200.042 202.072 200.042C202.231 200.042 202.361 200.093 202.464 200.196C202.567 200.289 202.618 200.42 202.618 200.588V201.26C202.823 200.859 203.108 200.551 203.472 200.336C203.836 200.121 204.256 200.014 204.732 200.014C205.796 200.014 206.491 200.462 206.818 201.358C207.014 200.947 207.313 200.621 207.714 200.378C208.115 200.135 208.573 200.014 209.086 200.014ZM215.906 200.014C217.614 200.014 218.468 200.91 218.468 202.702V206.51C218.468 206.678 218.417 206.813 218.314 206.916C218.221 207.019 218.09 207.07 217.922 207.07C217.754 207.07 217.619 207.019 217.516 206.916C217.413 206.813 217.362 206.678 217.362 206.51V205.838C217.185 206.239 216.914 206.552 216.55 206.776C216.186 206.991 215.766 207.098 215.29 207.098C214.851 207.098 214.445 207.009 214.072 206.832C213.708 206.655 213.419 206.407 213.204 206.09C212.989 205.773 212.882 205.423 212.882 205.04C212.882 204.527 213.013 204.13 213.274 203.85C213.535 203.561 213.965 203.355 214.562 203.234C215.159 203.103 215.99 203.038 217.054 203.038H217.362V202.576C217.362 202.016 217.245 201.605 217.012 201.344C216.788 201.083 216.419 200.952 215.906 200.952C215.271 200.952 214.627 201.125 213.974 201.47C213.722 201.629 213.545 201.708 213.442 201.708C213.33 201.708 213.237 201.666 213.162 201.582C213.087 201.498 213.05 201.391 213.05 201.26C213.05 201.129 213.087 201.017 213.162 200.924C213.246 200.821 213.377 200.719 213.554 200.616C213.881 200.429 214.249 200.285 214.66 200.182C215.08 200.07 215.495 200.014 215.906 200.014ZM215.444 206.202C216.004 206.202 216.461 206.015 216.816 205.642C217.18 205.259 217.362 204.769 217.362 204.172V203.766H217.11C216.289 203.766 215.663 203.803 215.234 203.878C214.805 203.943 214.497 204.06 214.31 204.228C214.133 204.387 214.044 204.625 214.044 204.942C214.044 205.306 214.175 205.609 214.436 205.852C214.707 206.085 215.043 206.202 215.444 206.202ZM225.774 200.042C225.951 200.042 226.091 200.093 226.194 200.196C226.296 200.299 226.348 200.434 226.348 200.602V206.538C226.348 207.555 226.086 208.321 225.564 208.834C225.041 209.357 224.266 209.618 223.24 209.618C222.241 209.618 221.41 209.422 220.748 209.03C220.412 208.843 220.244 208.629 220.244 208.386C220.244 208.255 220.276 208.148 220.342 208.064C220.416 207.98 220.51 207.938 220.622 207.938C220.715 207.938 220.883 208.003 221.126 208.134C221.452 208.302 221.774 208.437 222.092 208.54C222.409 208.643 222.787 208.694 223.226 208.694C223.888 208.694 224.388 208.517 224.724 208.162C225.06 207.817 225.228 207.308 225.228 206.636V205.432C225.032 205.871 224.728 206.207 224.318 206.44C223.916 206.673 223.44 206.79 222.89 206.79C222.292 206.79 221.76 206.65 221.294 206.37C220.836 206.09 220.477 205.693 220.216 205.18C219.964 204.667 219.838 204.074 219.838 203.402C219.838 202.73 219.964 202.137 220.216 201.624C220.477 201.111 220.836 200.714 221.294 200.434C221.76 200.154 222.292 200.014 222.89 200.014C223.431 200.014 223.902 200.131 224.304 200.364C224.705 200.597 225.008 200.929 225.214 201.358V200.602C225.214 200.434 225.26 200.299 225.354 200.196C225.456 200.093 225.596 200.042 225.774 200.042ZM223.114 205.852C223.767 205.852 224.28 205.637 224.654 205.208C225.027 204.769 225.214 204.167 225.214 203.402C225.214 202.646 225.027 202.053 224.654 201.624C224.29 201.185 223.776 200.966 223.114 200.966C222.451 200.966 221.928 201.185 221.546 201.624C221.172 202.053 220.986 202.646 220.986 203.402C220.986 204.167 221.172 204.769 221.546 205.208C221.928 205.637 222.451 205.852 223.114 205.852ZM233.425 205.418C233.528 205.418 233.616 205.46 233.691 205.544C233.766 205.628 233.803 205.735 233.803 205.866C233.803 206.099 233.64 206.314 233.313 206.51C232.977 206.706 232.622 206.855 232.249 206.958C231.876 207.051 231.512 207.098 231.157 207.098C230.102 207.098 229.267 206.785 228.651 206.16C228.044 205.535 227.741 204.671 227.741 203.57C227.741 202.87 227.876 202.254 228.147 201.722C228.418 201.181 228.796 200.761 229.281 200.462C229.776 200.163 230.336 200.014 230.961 200.014C231.848 200.014 232.552 200.303 233.075 200.882C233.598 201.461 233.859 202.245 233.859 203.234C233.859 203.421 233.822 203.556 233.747 203.64C233.672 203.724 233.551 203.766 233.383 203.766H228.875C228.959 205.371 229.72 206.174 231.157 206.174C231.521 206.174 231.834 206.127 232.095 206.034C232.356 205.931 232.636 205.796 232.935 205.628C233.178 205.488 233.341 205.418 233.425 205.418ZM230.975 200.896C230.378 200.896 229.897 201.083 229.533 201.456C229.178 201.829 228.968 202.357 228.903 203.038H232.865C232.846 202.347 232.674 201.82 232.347 201.456C232.02 201.083 231.563 200.896 230.975 200.896ZM235.79 201.61C235.566 201.61 235.379 201.54 235.23 201.4C235.08 201.251 235.006 201.059 235.006 200.826C235.006 200.593 235.08 200.406 235.23 200.266C235.379 200.117 235.566 200.042 235.79 200.042C236.004 200.042 236.182 200.117 236.322 200.266C236.471 200.406 236.546 200.593 236.546 200.826C236.546 201.059 236.471 201.251 236.322 201.4C236.182 201.54 236.004 201.61 235.79 201.61ZM235.79 207.07C235.566 207.07 235.379 207 235.23 206.86C235.08 206.711 235.006 206.519 235.006 206.286C235.006 206.053 235.08 205.861 235.23 205.712C235.379 205.563 235.566 205.488 235.79 205.488C236.004 205.488 236.182 205.563 236.322 205.712C236.471 205.861 236.546 206.053 236.546 206.286C236.546 206.519 236.471 206.711 236.322 206.86C236.182 207 236.004 207.07 235.79 207.07ZM244.868 200.014C245.466 200.014 245.993 200.163 246.45 200.462C246.908 200.761 247.262 201.181 247.514 201.722C247.766 202.254 247.892 202.875 247.892 203.584C247.892 204.293 247.766 204.914 247.514 205.446C247.262 205.969 246.908 206.375 246.45 206.664C246.002 206.953 245.475 207.098 244.868 207.098C244.336 207.098 243.87 206.981 243.468 206.748C243.076 206.515 242.778 206.183 242.572 205.754V209.044C242.572 209.212 242.521 209.343 242.418 209.436C242.325 209.539 242.19 209.59 242.012 209.59C241.835 209.59 241.695 209.539 241.592 209.436C241.49 209.333 241.438 209.203 241.438 209.044V200.602C241.438 200.434 241.49 200.299 241.592 200.196C241.695 200.093 241.835 200.042 242.012 200.042C242.19 200.042 242.325 200.093 242.418 200.196C242.521 200.299 242.572 200.434 242.572 200.602V201.358C242.778 200.929 243.076 200.597 243.468 200.364C243.87 200.131 244.336 200.014 244.868 200.014ZM244.644 206.16C245.307 206.16 245.82 205.936 246.184 205.488C246.548 205.04 246.73 204.405 246.73 203.584C246.73 202.763 246.548 202.123 246.184 201.666C245.82 201.199 245.307 200.966 244.644 200.966C243.982 200.966 243.468 201.19 243.104 201.638C242.75 202.086 242.572 202.725 242.572 203.556C242.572 204.387 242.75 205.031 243.104 205.488C243.468 205.936 243.982 206.16 244.644 206.16ZM252.717 200.014C254.35 200.014 255.167 200.915 255.167 202.716V206.51C255.167 206.687 255.115 206.827 255.013 206.93C254.919 207.023 254.784 207.07 254.607 207.07C254.429 207.07 254.289 207.023 254.187 206.93C254.084 206.827 254.033 206.687 254.033 206.51V202.786C254.033 202.151 253.907 201.689 253.655 201.4C253.412 201.111 253.02 200.966 252.479 200.966C251.853 200.966 251.354 201.157 250.981 201.54C250.607 201.923 250.421 202.441 250.421 203.094V206.51C250.421 206.687 250.369 206.827 250.267 206.93C250.173 207.023 250.038 207.07 249.861 207.07C249.683 207.07 249.543 207.023 249.441 206.93C249.338 206.827 249.287 206.687 249.287 206.51V200.602C249.287 200.434 249.338 200.299 249.441 200.196C249.543 200.093 249.683 200.042 249.861 200.042C250.029 200.042 250.159 200.093 250.253 200.196C250.355 200.299 250.407 200.429 250.407 200.588V201.302C250.631 200.882 250.943 200.565 251.345 200.35C251.746 200.126 252.203 200.014 252.717 200.014ZM262.474 200.042C262.651 200.042 262.791 200.093 262.894 200.196C262.996 200.299 263.048 200.434 263.048 200.602V206.538C263.048 207.555 262.786 208.321 262.264 208.834C261.741 209.357 260.966 209.618 259.94 209.618C258.941 209.618 258.11 209.422 257.448 209.03C257.112 208.843 256.944 208.629 256.944 208.386C256.944 208.255 256.976 208.148 257.042 208.064C257.116 207.98 257.21 207.938 257.322 207.938C257.415 207.938 257.583 208.003 257.826 208.134C258.152 208.302 258.474 208.437 258.792 208.54C259.109 208.643 259.487 208.694 259.926 208.694C260.588 208.694 261.088 208.517 261.424 208.162C261.76 207.817 261.928 207.308 261.928 206.636V205.432C261.732 205.871 261.428 206.207 261.018 206.44C260.616 206.673 260.14 206.79 259.59 206.79C258.992 206.79 258.46 206.65 257.994 206.37C257.536 206.09 257.177 205.693 256.916 205.18C256.664 204.667 256.538 204.074 256.538 203.402C256.538 202.73 256.664 202.137 256.916 201.624C257.177 201.111 257.536 200.714 257.994 200.434C258.46 200.154 258.992 200.014 259.59 200.014C260.131 200.014 260.602 200.131 261.004 200.364C261.405 200.597 261.708 200.929 261.914 201.358V200.602C261.914 200.434 261.96 200.299 262.054 200.196C262.156 200.093 262.296 200.042 262.474 200.042ZM259.814 205.852C260.467 205.852 260.98 205.637 261.354 205.208C261.727 204.769 261.914 204.167 261.914 203.402C261.914 202.646 261.727 202.053 261.354 201.624C260.99 201.185 260.476 200.966 259.814 200.966C259.151 200.966 258.628 201.185 258.246 201.624C257.872 202.053 257.686 202.646 257.686 203.402C257.686 204.167 257.872 204.769 258.246 205.208C258.628 205.637 259.151 205.852 259.814 205.852ZM265.379 205.488C265.612 205.488 265.799 205.581 265.939 205.768C266.088 205.945 266.163 206.216 266.163 206.58C266.163 207.317 265.925 207.938 265.449 208.442C265.356 208.545 265.248 208.596 265.127 208.596C265.034 208.596 264.95 208.559 264.875 208.484C264.8 208.419 264.763 208.339 264.763 208.246C264.763 208.143 264.8 208.055 264.875 207.98C265.118 207.728 265.272 207.415 265.337 207.042C265.132 207.023 264.959 206.949 264.819 206.818C264.688 206.678 264.623 206.501 264.623 206.286C264.623 206.053 264.693 205.861 264.833 205.712C264.982 205.563 265.164 205.488 265.379 205.488ZM269.641 209.548C269.408 209.567 269.235 209.534 269.123 209.45C269.002 209.375 268.941 209.259 268.941 209.1C268.941 208.848 269.105 208.703 269.431 208.666L269.823 208.638C270.243 208.61 270.551 208.484 270.747 208.26C270.953 208.036 271.055 207.667 271.055 207.154V200.602C271.055 200.425 271.107 200.289 271.209 200.196C271.321 200.093 271.461 200.042 271.629 200.042C271.797 200.042 271.933 200.093 272.035 200.196C272.138 200.289 272.189 200.425 272.189 200.602V207.084C272.189 207.868 272.012 208.456 271.657 208.848C271.312 209.24 270.771 209.464 270.033 209.52L269.641 209.548ZM271.629 198.572C271.405 198.572 271.223 198.507 271.083 198.376C270.943 198.245 270.873 198.073 270.873 197.858C270.873 197.653 270.943 197.485 271.083 197.354C271.223 197.223 271.405 197.158 271.629 197.158C271.853 197.158 272.035 197.223 272.175 197.354C272.315 197.485 272.385 197.653 272.385 197.858C272.385 198.073 272.315 198.245 272.175 198.376C272.035 198.507 271.853 198.572 271.629 198.572ZM277.439 200.014C278.037 200.014 278.564 200.163 279.021 200.462C279.479 200.761 279.833 201.181 280.085 201.722C280.337 202.254 280.463 202.875 280.463 203.584C280.463 204.293 280.337 204.914 280.085 205.446C279.833 205.969 279.479 206.375 279.021 206.664C278.573 206.953 278.046 207.098 277.439 207.098C276.907 207.098 276.441 206.981 276.039 206.748C275.647 206.515 275.349 206.183 275.143 205.754V209.044C275.143 209.212 275.092 209.343 274.989 209.436C274.896 209.539 274.761 209.59 274.583 209.59C274.406 209.59 274.266 209.539 274.163 209.436C274.061 209.333 274.009 209.203 274.009 209.044V200.602C274.009 200.434 274.061 200.299 274.163 200.196C274.266 200.093 274.406 200.042 274.583 200.042C274.761 200.042 274.896 200.093 274.989 200.196C275.092 200.299 275.143 200.434 275.143 200.602V201.358C275.349 200.929 275.647 200.597 276.039 200.364C276.441 200.131 276.907 200.014 277.439 200.014ZM277.215 206.16C277.878 206.16 278.391 205.936 278.755 205.488C279.119 205.04 279.301 204.405 279.301 203.584C279.301 202.763 279.119 202.123 278.755 201.666C278.391 201.199 277.878 200.966 277.215 200.966C276.553 200.966 276.039 201.19 275.675 201.638C275.321 202.086 275.143 202.725 275.143 203.556C275.143 204.387 275.321 205.031 275.675 205.488C276.039 205.936 276.553 206.16 277.215 206.16ZM287.388 200.042C287.565 200.042 287.705 200.093 287.808 200.196C287.91 200.299 287.962 200.434 287.962 200.602V206.538C287.962 207.555 287.7 208.321 287.178 208.834C286.655 209.357 285.88 209.618 284.854 209.618C283.855 209.618 283.024 209.422 282.362 209.03C282.026 208.843 281.858 208.629 281.858 208.386C281.858 208.255 281.89 208.148 281.956 208.064C282.03 207.98 282.124 207.938 282.236 207.938C282.329 207.938 282.497 208.003 282.74 208.134C283.066 208.302 283.388 208.437 283.706 208.54C284.023 208.643 284.401 208.694 284.84 208.694C285.502 208.694 286.002 208.517 286.338 208.162C286.674 207.817 286.842 207.308 286.842 206.636V205.432C286.646 205.871 286.342 206.207 285.932 206.44C285.53 206.673 285.054 206.79 284.504 206.79C283.906 206.79 283.374 206.65 282.908 206.37C282.45 206.09 282.091 205.693 281.83 205.18C281.578 204.667 281.452 204.074 281.452 203.402C281.452 202.73 281.578 202.137 281.83 201.624C282.091 201.111 282.45 200.714 282.908 200.434C283.374 200.154 283.906 200.014 284.504 200.014C285.045 200.014 285.516 200.131 285.918 200.364C286.319 200.597 286.622 200.929 286.828 201.358V200.602C286.828 200.434 286.874 200.299 286.968 200.196C287.07 200.093 287.21 200.042 287.388 200.042ZM284.728 205.852C285.381 205.852 285.894 205.637 286.268 205.208C286.641 204.769 286.828 204.167 286.828 203.402C286.828 202.646 286.641 202.053 286.268 201.624C285.904 201.185 285.39 200.966 284.728 200.966C284.065 200.966 283.542 201.185 283.16 201.624C282.786 202.053 282.6 202.646 282.6 203.402C282.6 204.167 282.786 204.769 283.16 205.208C283.542 205.637 284.065 205.852 284.728 205.852ZM300.658 200.014C302.17 200.014 302.926 200.915 302.926 202.716V206.51C302.926 206.687 302.875 206.827 302.772 206.93C302.67 207.023 302.534 207.07 302.366 207.07C302.198 207.07 302.058 207.023 301.946 206.93C301.844 206.827 301.792 206.687 301.792 206.51V202.744C301.792 202.119 301.68 201.666 301.456 201.386C301.232 201.106 300.882 200.966 300.406 200.966C299.837 200.966 299.389 201.157 299.062 201.54C298.736 201.923 298.572 202.441 298.572 203.094V206.51C298.572 206.687 298.516 206.827 298.404 206.93C298.302 207.023 298.166 207.07 297.998 207.07C297.83 207.07 297.695 207.023 297.592 206.93C297.49 206.827 297.438 206.687 297.438 206.51V202.744C297.438 202.119 297.326 201.666 297.102 201.386C296.878 201.106 296.524 200.966 296.038 200.966C295.478 200.966 295.03 201.157 294.694 201.54C294.368 201.923 294.204 202.441 294.204 203.094V206.51C294.204 206.687 294.153 206.827 294.05 206.93C293.948 207.023 293.812 207.07 293.644 207.07C293.476 207.07 293.336 207.023 293.224 206.93C293.122 206.827 293.07 206.687 293.07 206.51V200.602C293.07 200.434 293.122 200.299 293.224 200.196C293.336 200.093 293.476 200.042 293.644 200.042C293.803 200.042 293.934 200.093 294.036 200.196C294.139 200.289 294.19 200.42 294.19 200.588V201.26C294.396 200.859 294.68 200.551 295.044 200.336C295.408 200.121 295.828 200.014 296.304 200.014C297.368 200.014 298.064 200.462 298.39 201.358C298.586 200.947 298.885 200.621 299.286 200.378C299.688 200.135 300.145 200.014 300.658 200.014ZM307.478 200.014C309.186 200.014 310.04 200.91 310.04 202.702V206.51C310.04 206.678 309.989 206.813 309.886 206.916C309.793 207.019 309.662 207.07 309.494 207.07C309.326 207.07 309.191 207.019 309.088 206.916C308.986 206.813 308.934 206.678 308.934 206.51V205.838C308.757 206.239 308.486 206.552 308.122 206.776C307.758 206.991 307.338 207.098 306.862 207.098C306.424 207.098 306.018 207.009 305.644 206.832C305.28 206.655 304.991 206.407 304.776 206.09C304.562 205.773 304.454 205.423 304.454 205.04C304.454 204.527 304.585 204.13 304.846 203.85C305.108 203.561 305.537 203.355 306.134 203.234C306.732 203.103 307.562 203.038 308.626 203.038H308.934V202.576C308.934 202.016 308.818 201.605 308.584 201.344C308.36 201.083 307.992 200.952 307.478 200.952C306.844 200.952 306.2 201.125 305.546 201.47C305.294 201.629 305.117 201.708 305.014 201.708C304.902 201.708 304.809 201.666 304.734 201.582C304.66 201.498 304.622 201.391 304.622 201.26C304.622 201.129 304.66 201.017 304.734 200.924C304.818 200.821 304.949 200.719 305.126 200.616C305.453 200.429 305.822 200.285 306.232 200.182C306.652 200.07 307.068 200.014 307.478 200.014ZM307.016 206.202C307.576 206.202 308.034 206.015 308.388 205.642C308.752 205.259 308.934 204.769 308.934 204.172V203.766H308.682C307.861 203.766 307.236 203.803 306.806 203.878C306.377 203.943 306.069 204.06 305.882 204.228C305.705 204.387 305.616 204.625 305.616 204.942C305.616 205.306 305.747 205.609 306.008 205.852C306.279 206.085 306.615 206.202 307.016 206.202ZM317.416 206.132C317.528 206.244 317.584 206.379 317.584 206.538C317.584 206.678 317.533 206.799 317.43 206.902C317.327 207.005 317.206 207.056 317.066 207.056C316.917 207.056 316.781 206.991 316.66 206.86L314.392 204.27L312.138 206.86C312.017 206.991 311.881 207.056 311.732 207.056C311.592 207.056 311.466 207.005 311.354 206.902C311.251 206.799 311.2 206.673 311.2 206.524C311.2 206.384 311.256 206.253 311.368 206.132L313.692 203.514L311.466 200.98C311.354 200.849 311.298 200.719 311.298 200.588C311.298 200.439 311.349 200.313 311.452 200.21C311.564 200.107 311.685 200.056 311.816 200.056C311.965 200.056 312.101 200.121 312.222 200.252L314.392 202.744L316.562 200.252C316.683 200.121 316.819 200.056 316.968 200.056C317.108 200.056 317.229 200.107 317.332 200.21C317.435 200.313 317.486 200.434 317.486 200.574C317.486 200.733 317.43 200.868 317.318 200.98L315.092 203.514L317.416 206.132ZM327.909 206.034C328.077 206.034 328.208 206.076 328.301 206.16C328.395 206.244 328.441 206.361 328.441 206.51C328.441 206.669 328.395 206.79 328.301 206.874C328.217 206.958 328.087 207 327.909 207H323.275C323.098 207 322.963 206.958 322.869 206.874C322.785 206.79 322.743 206.669 322.743 206.51C322.743 206.361 322.79 206.244 322.883 206.16C322.977 206.076 323.107 206.034 323.275 206.034H325.011V198.53L323.485 199.524C323.411 199.571 323.336 199.594 323.261 199.594C323.131 199.594 323.014 199.533 322.911 199.412C322.818 199.291 322.771 199.16 322.771 199.02C322.771 198.824 322.846 198.684 322.995 198.6L325.123 197.214C325.282 197.111 325.445 197.06 325.613 197.06C325.772 197.06 325.903 197.111 326.005 197.214C326.108 197.317 326.159 197.461 326.159 197.648V206.034H327.909ZM337.754 200.014C339.266 200.014 340.022 200.915 340.022 202.716V206.51C340.022 206.687 339.971 206.827 339.868 206.93C339.765 207.023 339.63 207.07 339.462 207.07C339.294 207.07 339.154 207.023 339.042 206.93C338.939 206.827 338.888 206.687 338.888 206.51V202.744C338.888 202.119 338.776 201.666 338.552 201.386C338.328 201.106 337.978 200.966 337.502 200.966C336.933 200.966 336.485 201.157 336.158 201.54C335.831 201.923 335.668 202.441 335.668 203.094V206.51C335.668 206.687 335.612 206.827 335.5 206.93C335.397 207.023 335.262 207.07 335.094 207.07C334.926 207.07 334.791 207.023 334.688 206.93C334.585 206.827 334.534 206.687 334.534 206.51V202.744C334.534 202.119 334.422 201.666 334.198 201.386C333.974 201.106 333.619 200.966 333.134 200.966C332.574 200.966 332.126 201.157 331.79 201.54C331.463 201.923 331.3 202.441 331.3 203.094V206.51C331.3 206.687 331.249 206.827 331.146 206.93C331.043 207.023 330.908 207.07 330.74 207.07C330.572 207.07 330.432 207.023 330.32 206.93C330.217 206.827 330.166 206.687 330.166 206.51V200.602C330.166 200.434 330.217 200.299 330.32 200.196C330.432 200.093 330.572 200.042 330.74 200.042C330.899 200.042 331.029 200.093 331.132 200.196C331.235 200.289 331.286 200.42 331.286 200.588V201.26C331.491 200.859 331.776 200.551 332.14 200.336C332.504 200.121 332.924 200.014 333.4 200.014C334.464 200.014 335.159 200.462 335.486 201.358C335.682 200.947 335.981 200.621 336.382 200.378C336.783 200.135 337.241 200.014 337.754 200.014ZM345.218 200.014C345.815 200.014 346.343 200.159 346.8 200.448C347.257 200.737 347.612 201.148 347.864 201.68C348.116 202.212 348.242 202.828 348.242 203.528C348.242 204.237 348.116 204.863 347.864 205.404C347.612 205.936 347.257 206.351 346.8 206.65C346.343 206.949 345.815 207.098 345.218 207.098C344.686 207.098 344.219 206.981 343.818 206.748C343.426 206.515 343.127 206.183 342.922 205.754V206.51C342.922 206.678 342.871 206.813 342.768 206.916C342.675 207.019 342.539 207.07 342.362 207.07C342.185 207.07 342.045 207.019 341.942 206.916C341.839 206.813 341.788 206.678 341.788 206.51V197.606C341.788 197.447 341.839 197.317 341.942 197.214C342.045 197.111 342.185 197.06 342.362 197.06C342.539 197.06 342.675 197.111 342.768 197.214C342.871 197.307 342.922 197.438 342.922 197.606V201.358C343.127 200.929 343.426 200.597 343.818 200.364C344.219 200.131 344.686 200.014 345.218 200.014ZM344.994 206.16C345.657 206.16 346.17 205.931 346.534 205.474C346.898 205.007 347.08 204.359 347.08 203.528C347.08 202.716 346.898 202.086 346.534 201.638C346.17 201.19 345.657 200.966 344.994 200.966C344.331 200.966 343.818 201.19 343.454 201.638C343.099 202.086 342.922 202.725 342.922 203.556C342.922 204.387 343.099 205.031 343.454 205.488C343.818 205.936 344.331 206.16 344.994 206.16Z" fill="#808080"/>
<path d="M260.52 176H241.48C240.557 176 239.672 175.633 239.019 174.981C238.367 174.328 238 173.443 238 172.52V153.48C238 152.557 238.367 151.672 239.019 151.019C239.672 150.367 240.557 150 241.48 150H260.52C261.443 150 262.328 150.367 262.981 151.019C263.633 151.672 264 152.557 264 153.48V172.52C264 173.443 263.633 174.328 262.981 174.981C262.328 175.633 261.443 176 260.52 176ZM241.48 152C241.087 152 240.711 152.156 240.433 152.433C240.156 152.711 240 153.087 240 153.48V172.52C240 172.913 240.156 173.289 240.433 173.567C240.711 173.844 241.087 174 241.48 174H260.52C260.913 174 261.289 173.844 261.567 173.567C261.844 173.289 262 172.913 262 172.52V153.48C262 153.087 261.844 152.711 261.567 152.433C261.289 152.156 260.913 152 260.52 152H241.48Z" fill="#025B95"/>
<path d="M239 172.08C238.856 172.08 238.714 172.048 238.583 171.989C238.452 171.929 238.335 171.842 238.24 171.733C238.155 171.633 238.091 171.516 238.05 171.391C238.01 171.265 237.995 171.133 238.007 171.002C238.018 170.87 238.055 170.742 238.115 170.625C238.176 170.508 238.259 170.405 238.36 170.32L245.187 164.56C245.697 164.13 246.349 163.906 247.016 163.933C247.682 163.961 248.314 164.236 248.787 164.707L252.027 167.947C252.148 168.05 252.302 168.107 252.46 168.107C252.619 168.107 252.773 168.05 252.894 167.947L256.04 165.667C256.507 165.308 257.079 165.113 257.667 165.113C258.256 165.113 258.828 165.308 259.294 165.667L263.627 169.12C263.73 169.202 263.817 169.304 263.88 169.42C263.944 169.535 263.985 169.662 264 169.793C264.015 169.925 264.004 170.058 263.967 170.185C263.931 170.311 263.869 170.43 263.787 170.533C263.705 170.637 263.603 170.723 263.487 170.787C263.372 170.851 263.245 170.891 263.114 170.906C262.982 170.921 262.849 170.91 262.723 170.873C262.596 170.837 262.477 170.776 262.374 170.693L258.054 167.227C257.937 167.137 257.794 167.088 257.647 167.088C257.5 167.088 257.357 167.137 257.24 167.227L254.094 169.667C253.582 170.051 252.948 170.239 252.309 170.195C251.67 170.15 251.068 169.878 250.614 169.427L247.374 166.12C247.251 166.009 247.092 165.948 246.927 165.948C246.762 165.948 246.603 166.009 246.48 166.12L239.64 171.853C239.462 172.004 239.234 172.085 239 172.08Z" fill="#025B95"/>
<path d="M255 162.667C254.275 162.667 253.566 162.452 252.963 162.049C252.36 161.646 251.89 161.073 251.613 160.403C251.335 159.733 251.262 158.996 251.404 158.285C251.545 157.574 251.895 156.92 252.407 156.407C252.92 155.895 253.574 155.545 254.285 155.404C254.996 155.262 255.733 155.335 256.403 155.613C257.073 155.89 257.646 156.36 258.049 156.963C258.452 157.566 258.667 158.275 258.667 159C258.667 159.973 258.281 160.905 257.593 161.593C256.905 162.281 255.973 162.667 255 162.667ZM255 157.333C254.671 157.333 254.348 157.431 254.074 157.614C253.8 157.798 253.587 158.058 253.46 158.362C253.334 158.667 253.301 159.002 253.366 159.325C253.43 159.649 253.589 159.946 253.822 160.179C254.055 160.412 254.352 160.57 254.675 160.635C254.998 160.699 255.333 160.666 255.638 160.54C255.943 160.414 256.203 160.2 256.386 159.926C256.569 159.652 256.667 159.33 256.667 159C256.667 158.558 256.491 158.134 256.179 157.822C255.866 157.509 255.442 157.333 255 157.333Z" fill="#025B95"/>
</svg>
