<svg width="170" height="63" viewBox="0 0 170 63" fill="none" xmlns="http://www.w3.org/2000/svg">
<path d="M92.4463 13.5982C92.4462 13.5981 92.4461 13.5981 92.4461 13.5981C91.4323 12.5843 90.0837 12.026 88.6486 12.026C86.8883 12.026 85.7405 12.7973 85.0011 13.4626C84.2758 12.8116 83.1089 12.026 81.3504 12.026C79.9159 12.026 78.5675 12.5843 77.5536 13.5982C75.4534 15.6993 75.4678 19.1061 77.5538 21.1921L84.337 27.9754C84.7031 28.3415 85.2967 28.3415 85.6628 27.9754L92.4461 21.1921C94.5351 19.103 94.5423 15.6952 92.4463 13.5982ZM78.8795 14.9239C79.5391 14.2643 80.4166 13.901 81.3503 13.901C82.8392 13.901 83.6523 14.737 84.1903 15.2902C84.2424 15.3437 84.291 15.3937 84.3364 15.4392C84.7023 15.8057 85.2971 15.8059 85.6633 15.4393C85.7069 15.3956 85.7527 15.3489 85.8008 15.2998C86.3795 14.7096 87.1721 13.9011 88.6486 13.9011C89.5827 13.9011 90.4604 14.2644 91.12 14.9238C92 15.8041 92.3108 17.0407 92.054 18.1733H87.9929C87.7008 18.1733 87.4254 18.3094 87.2481 18.5414L86.3206 19.7549L84.5999 16.93C84.264 16.3785 83.4843 16.3254 83.0754 16.8218L81.6715 18.5271H78.0453C77.6293 17.3051 77.907 15.8968 78.8795 14.9239ZM84.9999 25.9867L79.4152 20.402H82.1141C82.3943 20.402 82.6598 20.2767 82.8379 20.0604L83.6848 19.0318L85.4324 21.9009C85.7766 22.4659 86.5789 22.5045 86.978 21.9826L88.4564 20.0483H90.9384L84.9999 25.9867Z" fill="#0059AB"/>
<path d="M96.8309 0H79.1334C78.8903 0 78.6432 0.0986875 78.4671 0.278125L72.5021 6.30725C72.3254 6.48588 72.231 6.72875 72.231 6.96688V31.0625C72.231 31.5802 72.6507 32 73.1685 32H96.831C97.3487 32 97.7685 31.5802 97.7685 31.0625V0.9375C97.7684 0.41975 97.3486 0 96.8309 0ZM78.196 3.21806V6.02913H75.4149L78.196 3.21806ZM95.8934 30.125H74.1059V7.90413H79.1335C79.6512 7.90413 80.071 7.48438 80.071 6.96663V1.875H95.8934V30.125Z" fill="#0059AB"/>
<path d="M82.8833 5.625H92.4558C92.9736 5.625 93.3933 5.20525 93.3933 4.6875C93.3933 4.16975 92.9736 3.75 92.4558 3.75H82.8833C82.3656 3.75 81.9458 4.16975 81.9458 4.6875C81.9458 5.20525 82.3655 5.625 82.8833 5.625Z" fill="#0059AB"/>
<path d="M92.4557 9.375C92.9735 9.375 93.3932 8.95525 93.3932 8.4375C93.3932 7.91975 92.9735 7.5 92.4557 7.5H89.6157C89.098 7.5 88.6782 7.91975 88.6782 8.4375C88.6782 8.95525 89.098 9.375 89.6157 9.375H92.4557Z" fill="#0059AB"/>
<path d="M82.8833 9.375H85.8659C86.3836 9.375 86.8033 8.95525 86.8033 8.4375C86.8033 7.91975 86.3836 7.5 85.8659 7.5H82.8833C82.3655 7.5 81.9458 7.91975 81.9458 8.4375C81.9458 8.95525 82.3655 9.375 82.8833 9.375Z" fill="#0059AB"/>
<path d="M2.09831 60C1.93965 60 1.80431 59.9533 1.69231 59.86C1.58965 59.7573 1.53831 59.6267 1.53831 59.468V50.648C1.53831 50.4707 1.58965 50.3307 1.69231 50.228C1.79498 50.116 1.93498 50.06 2.11231 50.06C2.28965 50.06 2.42965 50.116 2.53231 50.228C2.63498 50.3307 2.68631 50.4707 2.68631 50.648V59.02H7.20831C7.37631 59.02 7.50698 59.062 7.60031 59.146C7.69365 59.23 7.74031 59.3513 7.74031 59.51C7.74031 59.6687 7.69365 59.79 7.60031 59.874C7.50698 59.958 7.37631 60 7.20831 60H2.09831ZM13.8952 58.418C13.9979 58.418 14.0865 58.46 14.1612 58.544C14.2359 58.628 14.2732 58.7353 14.2732 58.866C14.2732 59.0993 14.1099 59.314 13.7832 59.51C13.4472 59.706 13.0925 59.8553 12.7192 59.958C12.3459 60.0513 11.9819 60.098 11.6272 60.098C10.5725 60.098 9.73719 59.7853 9.12119 59.16C8.51452 58.5347 8.21119 57.6713 8.21119 56.57C8.21119 55.87 8.34652 55.254 8.61719 54.722C8.88785 54.1807 9.26585 53.7607 9.75119 53.462C10.2459 53.1633 10.8059 53.014 11.4312 53.014C12.3179 53.014 13.0225 53.3033 13.5452 53.882C14.0679 54.4607 14.3292 55.2447 14.3292 56.234C14.3292 56.4207 14.2919 56.556 14.2172 56.64C14.1425 56.724 14.0212 56.766 13.8532 56.766H9.34519C9.42919 58.3713 10.1899 59.174 11.6272 59.174C11.9912 59.174 12.3039 59.1273 12.5652 59.034C12.8265 58.9313 13.1065 58.796 13.4052 58.628C13.6479 58.488 13.8112 58.418 13.8952 58.418ZM11.4452 53.896C10.8479 53.896 10.3672 54.0827 10.0032 54.456C9.64852 54.8293 9.43852 55.3567 9.37319 56.038H13.3352C13.3165 55.3473 13.1439 54.82 12.8172 54.456C12.4905 54.0827 12.0332 53.896 11.4452 53.896ZM19.13 53.014C20.7633 53.014 21.58 53.9147 21.58 55.716V59.51C21.58 59.6873 21.5287 59.8273 21.426 59.93C21.3327 60.0233 21.1973 60.07 21.02 60.07C20.8427 60.07 20.7027 60.0233 20.6 59.93C20.4973 59.8273 20.446 59.6873 20.446 59.51V55.786C20.446 55.1513 20.32 54.6893 20.068 54.4C19.8253 54.1107 19.4333 53.966 18.892 53.966C18.2667 53.966 17.7673 54.1573 17.394 54.54C17.0207 54.9227 16.834 55.4407 16.834 56.094V59.51C16.834 59.6873 16.7827 59.8273 16.68 59.93C16.5867 60.0233 16.4513 60.07 16.274 60.07C16.0967 60.07 15.9567 60.0233 15.854 59.93C15.7513 59.8273 15.7 59.6873 15.7 59.51V53.602C15.7 53.434 15.7513 53.2987 15.854 53.196C15.9567 53.0933 16.0967 53.042 16.274 53.042C16.442 53.042 16.5727 53.0933 16.666 53.196C16.7687 53.2987 16.82 53.4293 16.82 53.588V54.302C17.044 53.882 17.3567 53.5647 17.758 53.35C18.1593 53.126 18.6167 53.014 19.13 53.014ZM28.887 53.042C29.0644 53.042 29.2044 53.0933 29.307 53.196C29.4097 53.2987 29.461 53.434 29.461 53.602V59.538C29.461 60.5553 29.1997 61.3207 28.677 61.834C28.1544 62.3567 27.3797 62.618 26.353 62.618C25.3544 62.618 24.5237 62.422 23.861 62.03C23.525 61.8433 23.357 61.6287 23.357 61.386C23.357 61.2553 23.3897 61.148 23.455 61.064C23.5297 60.98 23.623 60.938 23.735 60.938C23.8284 60.938 23.9964 61.0033 24.239 61.134C24.5657 61.302 24.8877 61.4373 25.205 61.54C25.5224 61.6427 25.9004 61.694 26.339 61.694C27.0017 61.694 27.501 61.5167 27.837 61.162C28.173 60.8167 28.341 60.308 28.341 59.636V58.432C28.145 58.8707 27.8417 59.2067 27.431 59.44C27.0297 59.6733 26.5537 59.79 26.003 59.79C25.4057 59.79 24.8737 59.65 24.407 59.37C23.9497 59.09 23.5904 58.6933 23.329 58.18C23.077 57.6667 22.951 57.074 22.951 56.402C22.951 55.73 23.077 55.1373 23.329 54.624C23.5904 54.1107 23.9497 53.714 24.407 53.434C24.8737 53.154 25.4057 53.014 26.003 53.014C26.5444 53.014 27.0157 53.1307 27.417 53.364C27.8184 53.5973 28.1217 53.9287 28.327 54.358V53.602C28.327 53.434 28.3737 53.2987 28.467 53.196C28.5697 53.0933 28.7097 53.042 28.887 53.042ZM26.227 58.852C26.8804 58.852 27.3937 58.6373 27.767 58.208C28.1404 57.7693 28.327 57.1673 28.327 56.402C28.327 55.646 28.1404 55.0533 27.767 54.624C27.403 54.1853 26.8897 53.966 26.227 53.966C25.5644 53.966 25.0417 54.1853 24.659 54.624C24.2857 55.0533 24.099 55.646 24.099 56.402C24.099 57.1673 24.2857 57.7693 24.659 58.208C25.0417 58.6373 25.5644 58.852 26.227 58.852ZM36.7062 59.104C36.8555 59.244 36.9302 59.3933 36.9302 59.552C36.9302 59.692 36.8788 59.8133 36.7762 59.916C36.6828 60.0187 36.5662 60.07 36.4262 60.07C36.3048 60.07 36.1788 60.014 36.0482 59.902L32.3942 56.752V59.51C32.3942 59.6873 32.3382 59.8273 32.2262 59.93C32.1235 60.0233 31.9928 60.07 31.8342 60.07C31.6662 60.07 31.5262 60.0233 31.4142 59.93C31.3115 59.8273 31.2602 59.6873 31.2602 59.51V50.62C31.2602 50.4427 31.3115 50.3073 31.4142 50.214C31.5262 50.1113 31.6662 50.06 31.8342 50.06C31.9928 50.06 32.1235 50.1113 32.2262 50.214C32.3382 50.3073 32.3942 50.4427 32.3942 50.62V56.304L35.7402 53.238C35.8522 53.126 35.9782 53.07 36.1182 53.07C36.2582 53.07 36.3795 53.1213 36.4822 53.224C36.5848 53.3267 36.6362 53.448 36.6362 53.588C36.6362 53.7467 36.5708 53.8867 36.4402 54.008L33.6822 56.472L36.7062 59.104ZM40.6915 53.014C42.3995 53.014 43.2535 53.91 43.2535 55.702V59.51C43.2535 59.678 43.2021 59.8133 43.0995 59.916C43.0061 60.0187 42.8755 60.07 42.7075 60.07C42.5395 60.07 42.4041 60.0187 42.3015 59.916C42.1988 59.8133 42.1475 59.678 42.1475 59.51V58.838C41.9701 59.2393 41.6995 59.552 41.3355 59.776C40.9715 59.9907 40.5515 60.098 40.0755 60.098C39.6368 60.098 39.2308 60.0093 38.8575 59.832C38.4935 59.6547 38.2041 59.4073 37.9895 59.09C37.7748 58.7727 37.6675 58.4227 37.6675 58.04C37.6675 57.5267 37.7981 57.13 38.0595 56.85C38.3208 56.5607 38.7501 56.3553 39.3475 56.234C39.9448 56.1033 40.7755 56.038 41.8395 56.038H42.1475V55.576C42.1475 55.016 42.0308 54.6053 41.7975 54.344C41.5735 54.0827 41.2048 53.952 40.6915 53.952C40.0568 53.952 39.4128 54.1247 38.7595 54.47C38.5075 54.6287 38.3301 54.708 38.2275 54.708C38.1155 54.708 38.0221 54.666 37.9475 54.582C37.8728 54.498 37.8355 54.3907 37.8355 54.26C37.8355 54.1293 37.8728 54.0173 37.9475 53.924C38.0315 53.8213 38.1621 53.7187 38.3395 53.616C38.6661 53.4293 39.0348 53.2847 39.4455 53.182C39.8655 53.07 40.2808 53.014 40.6915 53.014ZM40.2295 59.202C40.7895 59.202 41.2468 59.0153 41.6015 58.642C41.9655 58.2593 42.1475 57.7693 42.1475 57.172V56.766H41.8955C41.0741 56.766 40.4488 56.8033 40.0195 56.878C39.5901 56.9433 39.2821 57.06 39.0955 57.228C38.9181 57.3867 38.8295 57.6247 38.8295 57.942C38.8295 58.306 38.9601 58.6093 39.2215 58.852C39.4921 59.0853 39.8281 59.202 40.2295 59.202ZM48.4593 53.014C49.0566 53.014 49.584 53.1633 50.0413 53.462C50.4986 53.7607 50.8533 54.1807 51.1053 54.722C51.3573 55.254 51.4833 55.8747 51.4833 56.584C51.4833 57.2933 51.3573 57.914 51.1053 58.446C50.8533 58.9687 50.4986 59.3747 50.0413 59.664C49.5933 59.9533 49.066 60.098 48.4593 60.098C47.9273 60.098 47.4606 59.9813 47.0593 59.748C46.6673 59.5147 46.3686 59.1833 46.1633 58.754V62.044C46.1633 62.212 46.112 62.3427 46.0093 62.436C45.916 62.5387 45.7806 62.59 45.6033 62.59C45.426 62.59 45.286 62.5387 45.1833 62.436C45.0806 62.3333 45.0293 62.2027 45.0293 62.044V53.602C45.0293 53.434 45.0806 53.2987 45.1833 53.196C45.286 53.0933 45.426 53.042 45.6033 53.042C45.7806 53.042 45.916 53.0933 46.0093 53.196C46.112 53.2987 46.1633 53.434 46.1633 53.602V54.358C46.3686 53.9287 46.6673 53.5973 47.0593 53.364C47.4606 53.1307 47.9273 53.014 48.4593 53.014ZM48.2353 59.16C48.898 59.16 49.4113 58.936 49.7753 58.488C50.1393 58.04 50.3213 57.4053 50.3213 56.584C50.3213 55.7627 50.1393 55.1233 49.7753 54.666C49.4113 54.1993 48.898 53.966 48.2353 53.966C47.5726 53.966 47.0593 54.19 46.6953 54.638C46.3406 55.086 46.1633 55.7253 46.1633 56.556C46.1633 57.3867 46.3406 58.0307 46.6953 58.488C47.0593 58.936 47.5726 59.16 48.2353 59.16ZM53.4517 60.07C53.2837 60.07 53.1437 60.0233 53.0317 59.93C52.9291 59.8273 52.8777 59.6873 52.8777 59.51V53.602C52.8777 53.4247 52.9291 53.2893 53.0317 53.196C53.1437 53.0933 53.2837 53.042 53.4517 53.042C53.6197 53.042 53.7551 53.0933 53.8577 53.196C53.9604 53.2893 54.0117 53.4247 54.0117 53.602V59.51C54.0117 59.6967 53.9604 59.8367 53.8577 59.93C53.7551 60.0233 53.6197 60.07 53.4517 60.07ZM53.4517 51.572C53.2277 51.572 53.0457 51.5067 52.9057 51.376C52.7657 51.2453 52.6957 51.0727 52.6957 50.858C52.6957 50.6527 52.7657 50.4847 52.9057 50.354C53.0457 50.2233 53.2277 50.158 53.4517 50.158C53.6757 50.158 53.8577 50.2233 53.9977 50.354C54.1377 50.4847 54.2077 50.6527 54.2077 50.858C54.2077 51.0727 54.1377 51.2453 53.9977 51.376C53.8577 51.5067 53.6757 51.572 53.4517 51.572ZM59.883 60.07C59.7057 60.07 59.5657 60.0187 59.463 59.916C59.3603 59.804 59.309 59.6593 59.309 59.482V50.69C59.309 50.522 59.3603 50.3867 59.463 50.284C59.575 50.1813 59.7197 50.13 59.897 50.13H64.993C65.161 50.13 65.2917 50.172 65.385 50.256C65.4783 50.34 65.525 50.4613 65.525 50.62C65.525 50.7693 65.4783 50.886 65.385 50.97C65.2917 51.054 65.161 51.096 64.993 51.096H60.443V54.498H64.713C64.881 54.498 65.0117 54.54 65.105 54.624C65.1983 54.708 65.245 54.8293 65.245 54.988C65.245 55.1373 65.1983 55.254 65.105 55.338C65.0117 55.422 64.881 55.464 64.713 55.464H60.443V59.482C60.443 59.6593 60.3917 59.804 60.289 59.916C60.1957 60.0187 60.0603 60.07 59.883 60.07ZM69.3253 60.098C68.6813 60.098 68.1119 59.9533 67.6173 59.664C67.1319 59.3747 66.7539 58.964 66.4833 58.432C66.2219 57.8907 66.0913 57.2653 66.0913 56.556C66.0913 55.8467 66.2219 55.226 66.4833 54.694C66.7539 54.1527 67.1319 53.7373 67.6173 53.448C68.1119 53.1587 68.6813 53.014 69.3253 53.014C69.9693 53.014 70.5386 53.1587 71.0333 53.448C71.5279 53.7373 71.9059 54.1527 72.1673 54.694C72.4379 55.226 72.5733 55.8467 72.5733 56.556C72.5733 57.2653 72.4379 57.8907 72.1673 58.432C71.9059 58.964 71.5279 59.3747 71.0333 59.664C70.5386 59.9533 69.9693 60.098 69.3253 60.098ZM69.3253 59.16C69.9973 59.16 70.5106 58.9407 70.8653 58.502C71.2293 58.054 71.4113 57.4053 71.4113 56.556C71.4113 55.7253 71.2293 55.086 70.8653 54.638C70.5013 54.1807 69.9879 53.952 69.3253 53.952C68.6626 53.952 68.1493 54.1807 67.7853 54.638C67.4213 55.086 67.2393 55.7253 67.2393 56.556C67.2393 57.396 67.4166 58.04 67.7713 58.488C68.1353 58.936 68.6533 59.16 69.3253 59.16ZM77.3369 53.042C77.7289 53.014 77.9249 53.1727 77.9249 53.518C77.9249 53.6673 77.8829 53.7887 77.7989 53.882C77.7149 53.966 77.5702 54.0173 77.3649 54.036L76.9449 54.078C76.3196 54.134 75.8529 54.358 75.5449 54.75C75.2462 55.1327 75.0969 55.5853 75.0969 56.108V59.51C75.0969 59.6967 75.0456 59.8367 74.9429 59.93C74.8402 60.0233 74.7049 60.07 74.5369 60.07C74.3689 60.07 74.2289 60.0233 74.1169 59.93C74.0142 59.8273 73.9629 59.6873 73.9629 59.51V53.602C73.9629 53.4247 74.0189 53.2893 74.1309 53.196C74.2429 53.0933 74.3782 53.042 74.5369 53.042C74.6862 53.042 74.8122 53.0933 74.9149 53.196C75.0176 53.2893 75.0689 53.42 75.0689 53.588V54.372C75.2649 53.9613 75.5402 53.6487 75.8949 53.434C76.2589 53.2193 76.6742 53.0933 77.1409 53.056L77.3369 53.042ZM86.1864 53.014C87.6984 53.014 88.4544 53.9147 88.4544 55.716V59.51C88.4544 59.6873 88.4031 59.8273 88.3004 59.93C88.1978 60.0233 88.0624 60.07 87.8944 60.07C87.7264 60.07 87.5864 60.0233 87.4744 59.93C87.3718 59.8273 87.3204 59.6873 87.3204 59.51V55.744C87.3204 55.1187 87.2084 54.666 86.9844 54.386C86.7604 54.106 86.4104 53.966 85.9344 53.966C85.3651 53.966 84.9171 54.1573 84.5904 54.54C84.2638 54.9227 84.1004 55.4407 84.1004 56.094V59.51C84.1004 59.6873 84.0444 59.8273 83.9324 59.93C83.8298 60.0233 83.6944 60.07 83.5264 60.07C83.3584 60.07 83.2231 60.0233 83.1204 59.93C83.0178 59.8273 82.9664 59.6873 82.9664 59.51V55.744C82.9664 55.1187 82.8544 54.666 82.6304 54.386C82.4064 54.106 82.0518 53.966 81.5664 53.966C81.0064 53.966 80.5584 54.1573 80.2224 54.54C79.8958 54.9227 79.7324 55.4407 79.7324 56.094V59.51C79.7324 59.6873 79.6811 59.8273 79.5784 59.93C79.4758 60.0233 79.3404 60.07 79.1724 60.07C79.0044 60.07 78.8644 60.0233 78.7524 59.93C78.6498 59.8273 78.5984 59.6873 78.5984 59.51V53.602C78.5984 53.434 78.6498 53.2987 78.7524 53.196C78.8644 53.0933 79.0044 53.042 79.1724 53.042C79.3311 53.042 79.4618 53.0933 79.5644 53.196C79.6671 53.2893 79.7184 53.42 79.7184 53.588V54.26C79.9238 53.8587 80.2084 53.5507 80.5724 53.336C80.9364 53.1213 81.3564 53.014 81.8324 53.014C82.8964 53.014 83.5918 53.462 83.9184 54.358C84.1144 53.9473 84.4131 53.6207 84.8144 53.378C85.2158 53.1353 85.6731 53.014 86.1864 53.014ZM94.2857 60C94.1084 60 93.9637 59.9487 93.8517 59.846C93.749 59.7433 93.6977 59.608 93.6977 59.44V50.69C93.6977 50.522 93.749 50.3867 93.8517 50.284C93.9637 50.1813 94.1084 50.13 94.2857 50.13H99.5217C99.6897 50.13 99.8204 50.172 99.9137 50.256C100.007 50.34 100.054 50.4567 100.054 50.606C100.054 50.7553 100.007 50.872 99.9137 50.956C99.8204 51.04 99.6897 51.082 99.5217 51.082H94.8317V54.512H99.2417C99.4097 54.512 99.5404 54.554 99.6337 54.638C99.727 54.722 99.7737 54.8387 99.7737 54.988C99.7737 55.1373 99.727 55.254 99.6337 55.338C99.5404 55.422 99.4097 55.464 99.2417 55.464H94.8317V59.048H99.5217C99.6897 59.048 99.8204 59.09 99.9137 59.174C100.007 59.2487 100.054 59.3653 100.054 59.524C100.054 59.6733 100.007 59.79 99.9137 59.874C99.8204 59.958 99.6897 60 99.5217 60H94.2857ZM104.808 53.014C105.405 53.014 105.933 53.1633 106.39 53.462C106.847 53.7607 107.202 54.1807 107.454 54.722C107.706 55.254 107.832 55.8747 107.832 56.584C107.832 57.2933 107.706 57.914 107.454 58.446C107.202 58.9687 106.847 59.3747 106.39 59.664C105.942 59.9533 105.415 60.098 104.808 60.098C104.276 60.098 103.809 59.9813 103.408 59.748C103.016 59.5147 102.717 59.1833 102.512 58.754V62.044C102.512 62.212 102.461 62.3427 102.358 62.436C102.265 62.5387 102.129 62.59 101.952 62.59C101.775 62.59 101.635 62.5387 101.532 62.436C101.429 62.3333 101.378 62.2027 101.378 62.044V53.602C101.378 53.434 101.429 53.2987 101.532 53.196C101.635 53.0933 101.775 53.042 101.952 53.042C102.129 53.042 102.265 53.0933 102.358 53.196C102.461 53.2987 102.512 53.434 102.512 53.602V54.358C102.717 53.9287 103.016 53.5973 103.408 53.364C103.809 53.1307 104.276 53.014 104.808 53.014ZM104.584 59.16C105.247 59.16 105.76 58.936 106.124 58.488C106.488 58.04 106.67 57.4053 106.67 56.584C106.67 55.7627 106.488 55.1233 106.124 54.666C105.76 54.1993 105.247 53.966 104.584 53.966C103.921 53.966 103.408 54.19 103.044 54.638C102.689 55.086 102.512 55.7253 102.512 56.556C102.512 57.3867 102.689 58.0307 103.044 58.488C103.408 58.936 103.921 59.16 104.584 59.16ZM109.801 60.07C109.633 60.07 109.493 60.0233 109.381 59.93C109.278 59.8273 109.227 59.6873 109.227 59.51V53.602C109.227 53.4247 109.278 53.2893 109.381 53.196C109.493 53.0933 109.633 53.042 109.801 53.042C109.969 53.042 110.104 53.0933 110.207 53.196C110.309 53.2893 110.361 53.4247 110.361 53.602V59.51C110.361 59.6967 110.309 59.8367 110.207 59.93C110.104 60.0233 109.969 60.07 109.801 60.07ZM109.801 51.572C109.577 51.572 109.395 51.5067 109.255 51.376C109.115 51.2453 109.045 51.0727 109.045 50.858C109.045 50.6527 109.115 50.4847 109.255 50.354C109.395 50.2233 109.577 50.158 109.801 50.158C110.025 50.158 110.207 50.2233 110.347 50.354C110.487 50.4847 110.557 50.6527 110.557 50.858C110.557 51.0727 110.487 51.2453 110.347 51.376C110.207 51.5067 110.025 51.572 109.801 51.572ZM117.654 50.06C117.832 50.06 117.972 50.1113 118.074 50.214C118.177 50.3167 118.228 50.4473 118.228 50.606V59.51C118.228 59.678 118.177 59.8133 118.074 59.916C117.972 60.0187 117.832 60.07 117.654 60.07C117.477 60.07 117.337 60.0187 117.234 59.916C117.141 59.8133 117.094 59.678 117.094 59.51V58.754C116.889 59.1833 116.586 59.5147 116.184 59.748C115.792 59.9813 115.33 60.098 114.798 60.098C114.201 60.098 113.674 59.9487 113.216 59.65C112.759 59.3513 112.404 58.936 112.152 58.404C111.9 57.8627 111.774 57.2373 111.774 56.528C111.774 55.828 111.9 55.212 112.152 54.68C112.404 54.148 112.759 53.7373 113.216 53.448C113.674 53.1587 114.201 53.014 114.798 53.014C115.33 53.014 115.792 53.1307 116.184 53.364C116.586 53.5973 116.889 53.9287 117.094 54.358V50.606C117.094 50.438 117.141 50.3073 117.234 50.214C117.337 50.1113 117.477 50.06 117.654 50.06ZM115.022 59.16C115.685 59.16 116.194 58.936 116.548 58.488C116.912 58.0307 117.094 57.3867 117.094 56.556C117.094 55.7253 116.912 55.086 116.548 54.638C116.194 54.19 115.685 53.966 115.022 53.966C114.36 53.966 113.842 54.19 113.468 54.638C113.104 55.086 112.922 55.716 112.922 56.528C112.922 57.3587 113.104 58.0073 113.468 58.474C113.842 58.9313 114.36 59.16 115.022 59.16ZM125.307 58.418C125.41 58.418 125.498 58.46 125.573 58.544C125.648 58.628 125.685 58.7353 125.685 58.866C125.685 59.0993 125.522 59.314 125.195 59.51C124.859 59.706 124.504 59.8553 124.131 59.958C123.758 60.0513 123.394 60.098 123.039 60.098C121.984 60.098 121.149 59.7853 120.533 59.16C119.926 58.5347 119.623 57.6713 119.623 56.57C119.623 55.87 119.758 55.254 120.029 54.722C120.3 54.1807 120.678 53.7607 121.163 53.462C121.658 53.1633 122.218 53.014 122.843 53.014C123.73 53.014 124.434 53.3033 124.957 53.882C125.48 54.4607 125.741 55.2447 125.741 56.234C125.741 56.4207 125.704 56.556 125.629 56.64C125.554 56.724 125.433 56.766 125.265 56.766H120.757C120.841 58.3713 121.602 59.174 123.039 59.174C123.403 59.174 123.716 59.1273 123.977 59.034C124.238 58.9313 124.518 58.796 124.817 58.628C125.06 58.488 125.223 58.418 125.307 58.418ZM122.857 53.896C122.26 53.896 121.779 54.0827 121.415 54.456C121.06 54.8293 120.85 55.3567 120.785 56.038H124.747C124.728 55.3473 124.556 54.82 124.229 54.456C123.902 54.0827 123.445 53.896 122.857 53.896ZM134.7 53.014C136.212 53.014 136.968 53.9147 136.968 55.716V59.51C136.968 59.6873 136.916 59.8273 136.814 59.93C136.711 60.0233 136.576 60.07 136.408 60.07C136.24 60.07 136.1 60.0233 135.988 59.93C135.885 59.8273 135.834 59.6873 135.834 59.51V55.744C135.834 55.1187 135.722 54.666 135.498 54.386C135.274 54.106 134.924 53.966 134.448 53.966C133.878 53.966 133.43 54.1573 133.104 54.54C132.777 54.9227 132.614 55.4407 132.614 56.094V59.51C132.614 59.6873 132.558 59.8273 132.446 59.93C132.343 60.0233 132.208 60.07 132.04 60.07C131.872 60.07 131.736 60.0233 131.634 59.93C131.531 59.8273 131.48 59.6873 131.48 59.51V55.744C131.48 55.1187 131.368 54.666 131.144 54.386C130.92 54.106 130.565 53.966 130.08 53.966C129.52 53.966 129.072 54.1573 128.736 54.54C128.409 54.9227 128.246 55.4407 128.246 56.094V59.51C128.246 59.6873 128.194 59.8273 128.092 59.93C127.989 60.0233 127.854 60.07 127.686 60.07C127.518 60.07 127.378 60.0233 127.266 59.93C127.163 59.8273 127.112 59.6873 127.112 59.51V53.602C127.112 53.434 127.163 53.2987 127.266 53.196C127.378 53.0933 127.518 53.042 127.686 53.042C127.844 53.042 127.975 53.0933 128.078 53.196C128.18 53.2893 128.232 53.42 128.232 53.588V54.26C128.437 53.8587 128.722 53.5507 129.086 53.336C129.45 53.1213 129.87 53.014 130.346 53.014C131.41 53.014 132.105 53.462 132.432 54.358C132.628 53.9473 132.926 53.6207 133.328 53.378C133.729 53.1353 134.186 53.014 134.7 53.014ZM139.308 60.07C139.14 60.07 139 60.0233 138.888 59.93C138.785 59.8273 138.734 59.6873 138.734 59.51V53.602C138.734 53.4247 138.785 53.2893 138.888 53.196C139 53.0933 139.14 53.042 139.308 53.042C139.476 53.042 139.611 53.0933 139.714 53.196C139.816 53.2893 139.868 53.4247 139.868 53.602V59.51C139.868 59.6967 139.816 59.8367 139.714 59.93C139.611 60.0233 139.476 60.07 139.308 60.07ZM139.308 51.572C139.084 51.572 138.902 51.5067 138.762 51.376C138.622 51.2453 138.552 51.0727 138.552 50.858C138.552 50.6527 138.622 50.4847 138.762 50.354C138.902 50.2233 139.084 50.158 139.308 50.158C139.532 50.158 139.714 50.2233 139.854 50.354C139.994 50.4847 140.064 50.6527 140.064 50.858C140.064 51.0727 139.994 51.2453 139.854 51.376C139.714 51.5067 139.532 51.572 139.308 51.572ZM144.515 60.098C143.871 60.098 143.302 59.9533 142.807 59.664C142.322 59.3747 141.944 58.964 141.673 58.432C141.412 57.8907 141.281 57.2653 141.281 56.556C141.281 55.8467 141.412 55.226 141.673 54.694C141.944 54.1527 142.322 53.7373 142.807 53.448C143.302 53.1587 143.871 53.014 144.515 53.014C145.159 53.014 145.729 53.1587 146.223 53.448C146.718 53.7373 147.096 54.1527 147.357 54.694C147.628 55.226 147.763 55.8467 147.763 56.556C147.763 57.2653 147.628 57.8907 147.357 58.432C147.096 58.964 146.718 59.3747 146.223 59.664C145.729 59.9533 145.159 60.098 144.515 60.098ZM144.515 59.16C145.187 59.16 145.701 58.9407 146.055 58.502C146.419 58.054 146.601 57.4053 146.601 56.556C146.601 55.7253 146.419 55.086 146.055 54.638C145.691 54.1807 145.178 53.952 144.515 53.952C143.853 53.952 143.339 54.1807 142.975 54.638C142.611 55.086 142.429 55.7253 142.429 56.556C142.429 57.396 142.607 58.04 142.961 58.488C143.325 58.936 143.843 59.16 144.515 59.16ZM149.727 60.07C149.559 60.07 149.419 60.0233 149.307 59.93C149.204 59.8273 149.153 59.6873 149.153 59.51V50.62C149.153 50.4427 149.204 50.3073 149.307 50.214C149.419 50.1113 149.559 50.06 149.727 50.06C149.886 50.06 150.016 50.1113 150.119 50.214C150.231 50.3073 150.287 50.4427 150.287 50.62V59.51C150.287 59.6873 150.231 59.8273 150.119 59.93C150.016 60.0233 149.886 60.07 149.727 60.07ZM154.935 60.098C154.291 60.098 153.722 59.9533 153.227 59.664C152.742 59.3747 152.364 58.964 152.093 58.432C151.832 57.8907 151.701 57.2653 151.701 56.556C151.701 55.8467 151.832 55.226 152.093 54.694C152.364 54.1527 152.742 53.7373 153.227 53.448C153.722 53.1587 154.291 53.014 154.935 53.014C155.579 53.014 156.148 53.1587 156.643 53.448C157.138 53.7373 157.516 54.1527 157.777 54.694C158.048 55.226 158.183 55.8467 158.183 56.556C158.183 57.2653 158.048 57.8907 157.777 58.432C157.516 58.964 157.138 59.3747 156.643 59.664C156.148 59.9533 155.579 60.098 154.935 60.098ZM154.935 59.16C155.607 59.16 156.12 58.9407 156.475 58.502C156.839 58.054 157.021 57.4053 157.021 56.556C157.021 55.7253 156.839 55.086 156.475 54.638C156.111 54.1807 155.598 53.952 154.935 53.952C154.272 53.952 153.759 54.1807 153.395 54.638C153.031 55.086 152.849 55.7253 152.849 56.556C152.849 57.396 153.026 58.04 153.381 58.488C153.745 58.936 154.263 59.16 154.935 59.16ZM165.103 53.042C165.28 53.042 165.42 53.0933 165.523 53.196C165.625 53.2987 165.677 53.434 165.677 53.602V59.538C165.677 60.5553 165.415 61.3207 164.893 61.834C164.37 62.3567 163.595 62.618 162.569 62.618C161.57 62.618 160.739 62.422 160.077 62.03C159.741 61.8433 159.573 61.6287 159.573 61.386C159.573 61.2553 159.605 61.148 159.671 61.064C159.745 60.98 159.839 60.938 159.951 60.938C160.044 60.938 160.212 61.0033 160.455 61.134C160.781 61.302 161.103 61.4373 161.421 61.54C161.738 61.6427 162.116 61.694 162.555 61.694C163.217 61.694 163.717 61.5167 164.053 61.162C164.389 60.8167 164.557 60.308 164.557 59.636V58.432C164.361 58.8707 164.057 59.2067 163.647 59.44C163.245 59.6733 162.769 59.79 162.219 59.79C161.621 59.79 161.089 59.65 160.623 59.37C160.165 59.09 159.806 58.6933 159.545 58.18C159.293 57.6667 159.167 57.074 159.167 56.402C159.167 55.73 159.293 55.1373 159.545 54.624C159.806 54.1107 160.165 53.714 160.623 53.434C161.089 53.154 161.621 53.014 162.219 53.014C162.76 53.014 163.231 53.1307 163.633 53.364C164.034 53.5973 164.337 53.9287 164.543 54.358V53.602C164.543 53.434 164.589 53.2987 164.683 53.196C164.785 53.0933 164.925 53.042 165.103 53.042ZM162.443 58.852C163.096 58.852 163.609 58.6373 163.983 58.208C164.356 57.7693 164.543 57.1673 164.543 56.402C164.543 55.646 164.356 55.0533 163.983 54.624C163.619 54.1853 163.105 53.966 162.443 53.966C161.78 53.966 161.257 54.1853 160.875 54.624C160.501 55.0533 160.315 55.646 160.315 56.402C160.315 57.1673 160.501 57.7693 160.875 58.208C161.257 58.6373 161.78 58.852 162.443 58.852ZM168.05 60.07C167.882 60.07 167.742 60.0233 167.63 59.93C167.527 59.8273 167.476 59.6873 167.476 59.51V53.602C167.476 53.4247 167.527 53.2893 167.63 53.196C167.742 53.0933 167.882 53.042 168.05 53.042C168.218 53.042 168.353 53.0933 168.456 53.196C168.558 53.2893 168.61 53.4247 168.61 53.602V59.51C168.61 59.6967 168.558 59.8367 168.456 59.93C168.353 60.0233 168.218 60.07 168.05 60.07ZM168.05 51.572C167.826 51.572 167.644 51.5067 167.504 51.376C167.364 51.2453 167.294 51.0727 167.294 50.858C167.294 50.6527 167.364 50.4847 167.504 50.354C167.644 50.2233 167.826 50.158 168.05 50.158C168.274 50.158 168.456 50.2233 168.596 50.354C168.736 50.4847 168.806 50.6527 168.806 50.858C168.806 51.0727 168.736 51.2453 168.596 51.376C168.456 51.5067 168.274 51.572 168.05 51.572Z" fill="#808080"/>
</svg>
