<svg width="20" height="20" viewBox="0 0 20 20" fill="none" xmlns="http://www.w3.org/2000/svg">
<g clip-path="url(#clip0)">
<path d="M7.86865 12.55C8.19226 12.55 8.45459 12.2877 8.45459 11.9641C8.45459 11.6405 8.19226 11.3782 7.86865 11.3782C7.54505 11.3782 7.28271 11.6405 7.28271 11.9641C7.28271 12.2877 7.54505 12.55 7.86865 12.55Z" fill="white"/>
<path d="M12.1313 12.55C12.455 12.55 12.7173 12.2877 12.7173 11.9641C12.7173 11.6405 12.455 11.3782 12.1313 11.3782C11.8077 11.3782 11.5454 11.6405 11.5454 11.9641C11.5454 12.2877 11.8077 12.55 12.1313 12.55Z" fill="white"/>
<path d="M8.36691 14.1768C8.16734 14.4315 8.21206 14.7998 8.46679 14.9994C8.91816 15.353 9.45909 15.5298 10 15.5298C10.541 15.5298 11.0819 15.353 11.5333 14.9994C11.788 14.7998 11.8327 14.4315 11.6332 14.1768C11.4335 13.922 11.0653 13.8773 10.8105 14.0769C10.3333 14.4508 9.66675 14.4508 9.18952 14.0769C8.9348 13.8774 8.56652 13.922 8.36691 14.1768Z" fill="white"/>
<path d="M9.00562 3.80545H9.41409V4.21393C9.41409 4.53752 9.67644 4.79986 10 4.79986C10.3236 4.79986 10.586 4.53752 10.586 4.21393V3.80545H10.9944C11.318 3.80545 11.5804 3.54311 11.5804 3.21951C11.5804 2.89592 11.318 2.63357 10.9944 2.63357H10.586V2.2251C10.586 1.9015 10.3236 1.63916 10 1.63916C9.67644 1.63916 9.41409 1.9015 9.41409 2.2251V2.63357H9.00562C8.68202 2.63357 8.41968 2.89592 8.41968 3.21951C8.41968 3.54311 8.68202 3.80545 9.00562 3.80545Z" fill="white"/>
<path d="M16.2545 7.16023C15.8996 6.66484 15.4941 6.25984 15.0527 5.95336L15.7611 2.59203C16.0429 1.255 15.0222 0 13.6584 0H6.3416C4.97516 0 3.9577 1.25758 4.23895 2.59195L4.94734 5.95332C4.5059 6.2598 4.10043 6.6648 3.74559 7.1602C2.9134 8.32187 2.45508 9.85645 2.45508 11.4813V13.758C2.45508 15.5836 3.94027 17.0688 5.76582 17.0688H7.0073L5.88281 17.6367C5.18477 17.9789 4.56594 18.4444 4.0434 19.0204C3.82598 19.26 3.84398 19.6306 4.08367 19.848C4.32336 20.0655 4.69395 20.0473 4.91133 19.8078C5.33453 19.3413 5.83586 18.9644 6.40137 18.6876C6.40355 18.6865 6.40574 18.6854 6.40789 18.6843L8.67562 17.5391C8.91523 17.6041 9.16184 17.6519 9.41406 17.6811V19.4141C9.41406 19.7377 9.67641 20 10 20C10.3236 20 10.5859 19.7377 10.5859 19.4141V17.6811C10.8382 17.6519 11.0848 17.6041 11.3244 17.5391L13.5921 18.6843C13.5943 18.6854 13.5964 18.6865 13.5986 18.6876C14.1641 18.9644 14.6655 19.3412 15.0887 19.8078C15.3061 20.0474 15.6766 20.0655 15.9163 19.848C16.156 19.6306 16.174 19.26 15.9566 19.0204C15.4341 18.4444 14.8152 17.9789 14.1172 17.6367L12.9927 17.0688H14.2341C16.0597 17.0688 17.5449 15.5836 17.5449 13.758V11.4813C17.5449 9.85645 17.0866 8.32188 16.2545 7.16023ZM6.3416 1.17188H13.6584C14.2797 1.17188 14.7423 1.74359 14.6144 2.35035L13.9997 5.26707H6.00031L5.38562 2.35035C5.38562 2.35031 5.38562 2.35031 5.38562 2.35031C5.2575 1.74238 5.7216 1.17188 6.3416 1.17188ZM6.11094 10.8193C8.06512 10.4647 9.36785 9.55355 10 9.00824C10.6321 9.55355 11.9349 10.4647 13.8891 10.8193V12.6543C13.8891 14.7987 12.1444 16.5434 10 16.5434C7.85559 16.5434 6.11094 14.7988 6.11094 12.6543V10.8193ZM16.373 13.758C16.373 14.9374 15.4136 15.8969 14.2342 15.8969H13.8825C14.6177 15.018 15.0609 13.887 15.0609 12.6543V10.3161C15.0609 10.0201 14.838 9.77023 14.5462 9.73445C11.8824 9.40848 10.4646 7.83754 10.4416 7.8116C10.2071 7.54254 9.78773 7.54672 9.55707 7.81316C9.54332 7.82902 8.15121 9.40434 5.45387 9.73445C5.16488 9.76988 4.9391 10.0171 4.9391 10.3161V12.6543C4.9391 13.887 5.38234 15.018 6.11754 15.8969H5.76586C4.58648 15.8969 3.62699 14.9374 3.62699 13.758V11.4813C3.62699 10.0992 4.00742 8.80699 4.69824 7.8427C5.34668 6.93754 6.18992 6.43906 7.0727 6.43906H12.9274C13.8102 6.43906 14.6534 6.93754 15.3018 7.8427C15.9927 8.80703 16.3731 10.0993 16.3731 11.4813V13.758H16.373Z" fill="white"/>
</g>
<defs>
<clipPath id="clip0">
<rect width="20" height="20" fill="white"/>
</clipPath>
</defs>
</svg>
