<svg width="20" height="20" viewBox="0 0 20 20" fill="none" xmlns="http://www.w3.org/2000/svg">
<path d="M17.5562 4.6875H14.375V3.5275C14.375 2.44438 13.4931 1.5625 12.41 1.5625H7.59C6.50688 1.5625 5.625 2.44438 5.625 3.5275V4.6875H2.44375C1.44125 4.6875 0.625 5.50375 0.625 6.50625V16.6187C0.625 17.6213 1.44125 18.4375 2.44375 18.4375H17.5562C18.5588 18.4375 19.375 17.6213 19.375 16.6187V6.50625C19.375 5.50375 18.5588 4.6875 17.5562 4.6875ZM6.875 3.5275C6.875 3.13313 7.19562 2.8125 7.59 2.8125H12.41C12.8044 2.8125 13.125 3.13313 13.125 3.5275V4.6875H6.875V3.5275ZM2.44375 5.9375H6.25H13.75H17.5562C17.87 5.9375 18.125 6.1925 18.125 6.50625V7.8125H1.875V6.50625C1.875 6.1925 2.13 5.9375 2.44375 5.9375ZM17.5562 17.1875H2.44375C2.13 17.1875 1.875 16.9325 1.875 16.6187V9.0625H18.125V16.6187C18.125 16.9325 17.87 17.1875 17.5562 17.1875Z" fill="white"/>
<path d="M11.5625 12.5H10.625V11.5625C10.625 11.2175 10.345 10.9375 10 10.9375C9.655 10.9375 9.375 11.2175 9.375 11.5625V12.5H8.4375C8.0925 12.5 7.8125 12.78 7.8125 13.125C7.8125 13.47 8.0925 13.75 8.4375 13.75H9.375V14.6875C9.375 15.0325 9.655 15.3125 10 15.3125C10.345 15.3125 10.625 15.0325 10.625 14.6875V13.75H11.5625C11.9075 13.75 12.1875 13.47 12.1875 13.125C12.1875 12.78 11.9075 12.5 11.5625 12.5Z" fill="white"/>
</svg>
