<svg width="20" height="20" viewBox="0 0 20 20" fill="none" xmlns="http://www.w3.org/2000/svg">
<path d="M15.7562 15.625H4.24375C3.2825 15.625 2.5 14.8431 2.5 13.8812V6.11875C2.5 5.15687 3.2825 4.375 4.24375 4.375H15.7562C16.7175 4.375 17.5 5.15687 17.5 6.11875V13.8812C17.5 14.8431 16.7175 15.625 15.7562 15.625ZM4.24375 5.625C3.97125 5.625 3.75 5.84625 3.75 6.11875V13.8812C3.75 14.1537 3.97125 14.375 4.24375 14.375H15.7562C16.0287 14.375 16.25 14.1537 16.25 13.8812V6.11875C16.25 5.84625 16.0287 5.625 15.7562 5.625H4.24375Z" fill="white"/>
<path d="M8.44187 12.4188C8.24625 12.3082 8.125 12.1001 8.125 11.8751V8.12505C8.125 7.90005 8.24625 7.69193 8.44187 7.5813C8.6375 7.47005 8.87875 7.47318 9.07188 7.58943L12.1969 9.46443C12.3844 9.57693 12.5 9.78068 12.5 10.0001C12.5 10.2194 12.3844 10.4232 12.1969 10.5357L9.07188 12.4107C8.87875 12.5269 8.6375 12.5301 8.44187 12.4188ZM9.375 9.2288V10.7713L10.6606 10.0001L9.375 9.2288Z" fill="white"/>
<path d="M1.25 13.75C0.906875 13.75 0.625 13.4681 0.625 13.125V6.875C0.625 6.53187 0.906875 6.25 1.25 6.25C1.59312 6.25 1.875 6.53187 1.875 6.875V13.125C1.875 13.4681 1.59312 13.75 1.25 13.75Z" fill="white"/>
<path d="M18.75 13.75C18.4069 13.75 18.125 13.4681 18.125 13.125V6.875C18.125 6.53187 18.4069 6.25 18.75 6.25C19.0931 6.25 19.375 6.53187 19.375 6.875V13.125C19.375 13.4681 19.0931 13.75 18.75 13.75Z" fill="white"/>
</svg>
