<svg width="20" height="20" viewBox="0 0 20 20" fill="none" xmlns="http://www.w3.org/2000/svg">
<path d="M14.0625 11.875H7.71937L7.89062 11.7381C8.16 11.5225 8.20375 11.1293 7.98813 10.86C7.77188 10.5906 7.37937 10.5468 7.10938 10.7625L5.54688 12.0125C5.52 12.0331 5.3125 12.2056 5.3125 12.5C5.3125 12.5343 5.3175 12.8037 5.54688 12.9881L7.10938 14.2381C7.3775 14.4525 7.77437 14.4081 7.98813 14.1406C8.20188 13.8731 8.15812 13.4768 7.89062 13.2625L7.71937 13.125H14.0625C14.4081 13.125 14.6875 12.845 14.6875 12.5C14.6875 12.155 14.4081 11.875 14.0625 11.875Z" fill="white"/>
<path d="M12.8906 5.76177C12.62 5.54615 12.2281 5.59052 12.0119 5.85927C11.7962 6.12865 11.8406 6.52177 12.1094 6.7374L12.2806 6.8749H5.9375C5.59188 6.8749 5.3125 7.1549 5.3125 7.4999C5.3125 7.8449 5.59188 8.1249 5.9375 8.1249H12.2806L12.1094 8.26177C11.8419 8.47615 11.7975 8.8724 12.0119 9.1399C12.2262 9.40802 12.6231 9.45177 12.8906 9.2374L14.4531 7.9874C14.48 7.96677 14.6875 7.79427 14.6875 7.4999C14.6875 7.46552 14.6825 7.19615 14.4531 7.01177L12.8906 5.76177Z" fill="white"/>
<path d="M16.9587 3.125H3.04125C1.70875 3.125 0.625 4.20875 0.625 5.54125V14.4588C0.625 15.7913 1.70875 16.875 3.04125 16.875H16.9587C18.2913 16.875 19.375 15.7913 19.375 14.4588V5.54125C19.375 4.20875 18.2913 3.125 16.9587 3.125ZM18.125 14.4588C18.125 15.1019 17.6019 15.625 16.9587 15.625H3.04125C2.39813 15.625 1.875 15.1019 1.875 14.4588V5.54125C1.875 4.89813 2.39813 4.375 3.04125 4.375H16.9587C17.6019 4.375 18.125 4.89813 18.125 5.54125V14.4588Z" fill="white"/>
</svg>
